<svg width="90" height="90" viewBox="0 0 90 90" fill="none" xmlns="http://www.w3.org/2000/svg">
<g clip-path="url(#clip0_40016694_3614)">
<path d="M48.1978 84.469C48.2232 82.8116 48.4708 78.9888 50.1091 75.401C49.7218 74.9629 49.3217 74.4358 48.9661 73.8071C47.2643 76.8552 43.105 77.5982 40.4697 75.1407C36.3802 71.3306 36.3421 67.2221 36.4945 64.536C34.1767 64.0153 32.1637 62.3897 31.389 59.9639C30.0301 59.5258 28.9315 58.5859 28.2521 57.3413C22.9624 55.3664 17.3553 50.8515 13.7611 44.9523C2.43257 26.3528 18.111 9.73461 33.764 13.8685C35.4086 8.07724 39.3457 3.74012 44.4639 1.56203C59.5263 -4.85157 77.0399 9.38536 69.0007 28.6897C76.9637 32.3473 81.5548 41.0914 79.6943 49.9371C77.6178 59.7861 69.9342 67.8634 62.0981 70.975C61.8505 71.4385 61.5711 71.8069 61.3171 72.0863C62.295 74.5628 61.7997 77.1092 60.3582 79.3825C59.5327 80.6843 59.1453 82.9449 59.1263 84.6087C59.1072 86.1708 58.4278 87.6567 57.253 88.6727C53.7541 91.6954 48.1343 89.2569 48.1978 84.469Z" fill="url(#paint0_linear_40016694_3614)"/>
<path d="M52.5922 75.9154C52.5668 75.9154 52.5478 75.909 52.5224 75.9027C52.4398 75.8646 52.4017 75.7693 52.4398 75.6867L52.751 75.0136L52.262 74.4548C52.2049 74.385 52.2112 74.2834 52.2747 74.2262C52.3446 74.1691 52.4462 74.1754 52.5033 74.2389L53.0621 74.8739C53.1066 74.9247 53.1129 74.9882 53.0875 75.0517L52.7319 75.8201C52.7129 75.8773 52.6557 75.9154 52.5922 75.9154ZM51.2206 73.0515C51.1698 73.0515 51.1127 73.026 51.0809 72.9753C51.0238 72.8863 50.9666 72.7911 50.9158 72.7022L50.1474 71.3496C50.103 71.2734 50.1284 71.1718 50.211 71.1274C50.2872 71.0829 50.3888 71.1083 50.4332 71.1909L51.2016 72.5434C51.2524 72.6323 51.3032 72.7213 51.3603 72.8038C51.4111 72.88 51.3857 72.9816 51.3095 73.0261C51.2841 73.0451 51.2524 73.0515 51.2206 73.0515ZM48.5409 69.8129C48.5155 69.8129 48.4837 69.8065 48.4647 69.7939C48.3885 69.7494 48.3567 69.6478 48.4012 69.5716L48.8139 68.835C48.8457 68.7842 48.8965 68.7524 48.9536 68.7524C49.0108 68.7524 49.0679 68.7842 49.0933 68.835L49.5124 69.5716C49.5569 69.6478 49.5315 69.7494 49.4489 69.7939C49.3727 69.8383 49.2711 69.8129 49.2267 69.7303L48.9536 69.2477L48.6806 69.7367C48.6552 69.7812 48.598 69.8129 48.5409 69.8129ZM44.1784 74.3723C44.0006 74.3723 43.8164 74.3596 43.6449 74.3278C43.556 74.3151 43.4989 74.2262 43.5116 74.1373C43.5243 74.0484 43.6132 73.9913 43.7021 74.004C43.8608 74.0294 44.0196 74.0421 44.1847 74.0421C44.5975 74.0421 44.9975 73.9595 45.3722 73.7881C45.4547 73.75 45.55 73.7881 45.5881 73.8706C45.6262 73.9532 45.5881 74.0484 45.5055 74.0865C45.0801 74.277 44.6356 74.3723 44.1784 74.3723ZM42.0892 73.5277C42.0511 73.5277 42.0066 73.515 41.9749 73.4833C41.5113 73.0515 41.0986 72.6006 40.7366 72.1434C40.6794 72.0735 40.6922 71.9719 40.762 71.9148C40.8319 71.8576 40.9335 71.8703 40.9906 71.9402C41.3399 72.3847 41.7463 72.8229 42.1908 73.242C42.2543 73.3055 42.2606 73.4071 42.1971 73.4706C42.1781 73.5087 42.1336 73.5277 42.0892 73.5277ZM46.7819 72.9562C46.7501 72.9562 46.7184 72.9499 46.693 72.9308C46.6168 72.88 46.5977 72.7784 46.6422 72.7085C46.6739 72.6577 46.6993 72.6133 46.7311 72.5625L47.5185 71.1464C47.563 71.0702 47.6646 71.0385 47.7408 71.0829C47.817 71.1274 47.8487 71.229 47.8043 71.3052L47.0168 72.7212C46.9851 72.7784 46.9533 72.8356 46.9152 72.8864C46.8898 72.9245 46.8327 72.9562 46.7819 72.9562ZM39.8984 70.6956C39.8412 70.6956 39.7841 70.6638 39.7523 70.6067C39.4729 70.0669 39.2443 69.4954 39.0792 68.9048C39.0538 68.8159 39.1046 68.727 39.1935 68.7016C39.2824 68.6762 39.3713 68.727 39.3967 68.8159C39.5555 69.3811 39.7714 69.9336 40.0444 70.4606C40.0825 70.5432 40.0571 70.6384 39.9746 70.6829C39.9492 70.6892 39.9238 70.6956 39.8984 70.6956ZM38.9141 67.2538C38.8316 67.2538 38.7617 67.1903 38.749 67.1078C38.7109 66.7204 38.6982 66.3203 38.6982 65.8822C38.6982 65.6917 38.7046 65.4948 38.7109 65.2853C38.7109 65.1964 38.7871 65.1265 38.876 65.1265C38.9649 65.1265 39.0348 65.2027 39.0348 65.2916C39.0284 65.5012 39.0221 65.6917 39.0221 65.8758C39.0221 66.3013 39.0411 66.6886 39.0729 67.0696C39.0792 67.1586 39.0157 67.2411 38.9268 67.2475C38.9205 67.2538 38.9205 67.2538 38.9141 67.2538ZM38.9649 63.6533H38.9586C38.8697 63.6469 38.7998 63.5707 38.8062 63.4818L38.8443 62.7706L38.1521 62.6119C38.0632 62.5928 38.0061 62.5039 38.0315 62.415C38.0505 62.3261 38.1394 62.269 38.2283 62.2944L39.0538 62.4785C39.13 62.4976 39.1872 62.5674 39.1808 62.6436L39.1364 63.4882C39.1237 63.5834 39.0475 63.6533 38.9649 63.6533ZM36.1772 62.0848C36.1582 62.0848 36.1328 62.0785 36.1137 62.0721C35.4406 61.7864 34.8437 61.3546 34.3865 60.8148C34.3293 60.745 34.3357 60.6433 34.4055 60.5862C34.4754 60.529 34.577 60.5354 34.6342 60.6053C35.0596 61.1006 35.6184 61.507 36.2471 61.7737C36.3296 61.8118 36.3677 61.907 36.336 61.9896C36.2979 62.0467 36.2407 62.0848 36.1772 62.0848ZM33.561 59.0304C33.4911 59.0304 33.4276 58.986 33.4086 58.9161L33.1736 58.1859L32.4497 57.9509C32.3672 57.9255 32.3164 57.8303 32.3481 57.7477C32.3735 57.6652 32.4688 57.6143 32.5513 57.6461L33.3578 57.9065C33.4086 57.9255 33.4467 57.9636 33.4657 58.0144L33.7261 58.8209C33.7515 58.9098 33.707 58.9987 33.6181 59.0241C33.5991 59.0304 33.58 59.0304 33.561 59.0304ZM31.0082 57.1825C30.9701 57.1825 30.932 57.1698 30.9003 57.1381C30.6336 56.8904 30.405 56.5983 30.2272 56.2618L29.916 55.6966C29.8716 55.6204 29.9033 55.5188 29.9795 55.4744C30.0557 55.4299 30.1573 55.4617 30.2018 55.5379L30.5129 56.103C30.678 56.4078 30.8876 56.6745 31.1225 56.8968C31.186 56.9603 31.1924 57.0619 31.1289 57.1254C31.0908 57.1698 31.0463 57.1825 31.0082 57.1825ZM28.5762 55.0553C28.5571 55.0553 28.5381 55.0489 28.5127 55.0426C27.9983 54.833 27.4712 54.5917 26.9505 54.3313C26.868 54.2932 26.8362 54.1916 26.8807 54.1154C26.9188 54.0329 27.0204 54.0011 27.0966 54.0456C27.6109 54.3059 28.1253 54.5409 28.6333 54.7441C28.7159 54.7759 28.754 54.8711 28.7222 54.9537C28.6968 55.0172 28.6397 55.0553 28.5762 55.0553ZM25.5345 53.5249C25.5091 53.5249 25.4773 53.5185 25.4519 53.4995C24.9693 53.2137 24.4867 52.9026 24.0104 52.5724C23.9342 52.5216 23.9152 52.42 23.966 52.3438C24.0168 52.2676 24.1184 52.2485 24.1946 52.2993C24.6645 52.6232 25.1407 52.928 25.617 53.2137C25.6932 53.2582 25.7186 53.3598 25.6742 53.436C25.6424 53.4995 25.5916 53.5249 25.5345 53.5249ZM22.7341 51.6008C22.696 51.6008 22.6642 51.5881 22.6325 51.5691C22.1879 51.2198 21.7434 50.8515 21.318 50.4768C21.2481 50.4197 21.2418 50.3117 21.3053 50.2482C21.3624 50.1784 21.4704 50.172 21.5339 50.2355C21.9593 50.6102 22.3975 50.9721 22.8357 51.315C22.9055 51.3722 22.9182 51.4738 22.8611 51.5437C22.8293 51.5754 22.7785 51.6008 22.7341 51.6008ZM20.1813 49.3529C20.1369 49.3529 20.0988 49.3402 20.067 49.3084C19.6606 48.9084 19.2669 48.4956 18.8859 48.0701C18.8224 48.0003 18.8287 47.8987 18.8986 47.8415C18.9621 47.778 19.07 47.7844 19.1272 47.8542C19.5019 48.2733 19.8956 48.6798 20.2956 49.0798C20.3591 49.1433 20.3591 49.2449 20.2956 49.3084C20.2639 49.3338 20.2194 49.3529 20.1813 49.3529ZM17.9016 46.8255C17.8508 46.8255 17.8064 46.8065 17.7746 46.762C17.419 46.3175 17.0698 45.854 16.7396 45.3968C16.6888 45.3206 16.7015 45.219 16.7777 45.1682C16.8539 45.1173 16.9555 45.1301 17.0063 45.2063C17.3301 45.6635 17.673 46.1143 18.0286 46.5588C18.0858 46.6287 18.0731 46.7303 18.0032 46.7874C17.9715 46.8128 17.9334 46.8255 17.9016 46.8255ZM15.9267 44.0505C15.8696 44.0505 15.8188 44.0251 15.787 43.9743C15.7489 43.9108 15.7108 43.8473 15.6727 43.7902C15.4124 43.3584 15.1584 42.9266 14.9298 42.4948C14.8853 42.4186 14.9171 42.317 14.9933 42.2725C15.0695 42.2281 15.1711 42.2598 15.2155 42.336C15.4441 42.7615 15.6918 43.1933 15.9521 43.6124C15.9902 43.6759 16.0283 43.733 16.0665 43.7965C16.1109 43.8727 16.0919 43.9743 16.0156 44.0188C15.9902 44.0442 15.9585 44.0505 15.9267 44.0505ZM14.3138 41.0596C14.2503 41.0596 14.1932 41.0215 14.1678 40.9644C13.9265 40.4437 13.7042 39.9103 13.5074 39.3832C13.4756 39.3007 13.5201 39.2054 13.6026 39.1737C13.6852 39.1419 13.7804 39.1864 13.8122 39.2689C14.009 39.7896 14.2313 40.3103 14.4662 40.8247C14.5043 40.9072 14.4662 41.0025 14.3837 41.0406C14.3583 41.0533 14.3329 41.0596 14.3138 41.0596ZM13.1137 37.8782C13.0438 37.8782 12.9803 37.8338 12.9549 37.7639C12.7898 37.2115 12.6501 36.6527 12.5358 36.1002C12.5167 36.0113 12.5739 35.9288 12.6628 35.9097C12.7517 35.8907 12.8342 35.9478 12.8533 36.0367C12.9676 36.5765 13.101 37.1289 13.2661 37.675C13.2915 37.7639 13.2407 37.8528 13.1581 37.8782C13.1391 37.8719 13.1264 37.8782 13.1137 37.8782ZM12.4278 34.5444C12.3453 34.5444 12.2754 34.4809 12.2691 34.3984C12.2119 33.9158 12.1738 33.4205 12.1548 32.9379C12.1484 32.8553 12.1484 32.7664 12.1484 32.6839C12.1484 32.5949 12.2183 32.5187 12.3072 32.5187H12.3135C12.4024 32.5187 12.4723 32.5886 12.4786 32.6775C12.4786 32.76 12.485 32.8426 12.485 32.9252C12.504 33.4014 12.5421 33.884 12.5993 34.3603C12.612 34.4492 12.5485 34.5317 12.4532 34.5381C12.4405 34.5444 12.4342 34.5444 12.4278 34.5444ZM12.3516 31.1471H12.3389C12.25 31.1408 12.1802 31.0646 12.1865 30.9693C12.231 30.3978 12.3008 29.8263 12.4024 29.2675C12.4151 29.1786 12.504 29.1214 12.5929 29.1341C12.6818 29.1468 12.739 29.2357 12.7263 29.3246C12.631 29.8771 12.5612 30.4359 12.5167 30.9947C12.504 31.0836 12.4342 31.1471 12.3516 31.1471ZM12.9422 27.8006C12.9295 27.8006 12.9104 27.8006 12.8977 27.7943C12.8088 27.7689 12.758 27.68 12.7834 27.5911C12.9422 27.0386 13.1264 26.4925 13.3359 25.9654C13.3677 25.8829 13.4629 25.8384 13.5455 25.8765C13.628 25.9083 13.6725 26.0035 13.6344 26.0861C13.4248 26.6068 13.247 27.1402 13.0883 27.68C13.0756 27.7562 13.0121 27.8006 12.9422 27.8006ZM14.2059 24.6446C14.1805 24.6446 14.1551 24.6383 14.1297 24.6256C14.0471 24.5811 14.0217 24.4859 14.0598 24.4033C14.1233 24.2827 14.1932 24.1557 14.263 24.0287C14.4726 23.654 14.7012 23.2857 14.9425 22.9237C14.9933 22.8475 15.0949 22.8285 15.1711 22.8793C15.2473 22.9301 15.2663 23.0317 15.2155 23.1079C14.9806 23.4572 14.7583 23.8191 14.5488 24.1874C14.4789 24.3081 14.4154 24.4287 14.3519 24.5494C14.3202 24.6129 14.263 24.6446 14.2059 24.6446ZM16.0919 21.8252C16.0537 21.8252 16.0156 21.8125 15.9902 21.7871C15.9204 21.7299 15.914 21.6283 15.9712 21.5585C16.3332 21.1203 16.7269 20.6949 17.1333 20.2948C17.1968 20.2313 17.2984 20.2313 17.3619 20.2948C17.4254 20.3583 17.4254 20.4599 17.3619 20.5234C16.9618 20.9171 16.5745 21.3299 16.2189 21.7617C16.1871 21.8061 16.1427 21.8252 16.0919 21.8252ZM18.5176 19.4439C18.4668 19.4439 18.4223 19.4248 18.3906 19.3804C18.3334 19.3105 18.3461 19.2089 18.416 19.1518C18.8605 18.7962 19.3304 18.4596 19.813 18.1485C19.8892 18.0977 19.9908 18.1231 20.0353 18.1993C20.0861 18.2755 20.0607 18.3771 19.9845 18.4215C19.5146 18.7263 19.051 19.0565 18.6192 19.4058C18.5938 19.4312 18.5557 19.4439 18.5176 19.4439ZM21.3751 17.6087C21.318 17.6087 21.2608 17.577 21.2291 17.5198C21.191 17.4373 21.2227 17.342 21.2989 17.2976C21.8069 17.0372 22.334 16.8022 22.8674 16.599C22.95 16.5673 23.0452 16.6054 23.077 16.6943C23.1087 16.7768 23.0706 16.8721 22.9817 16.9038C22.461 17.107 21.9403 17.3357 21.445 17.5897C21.4259 17.6024 21.4005 17.6087 21.3751 17.6087ZM24.5438 16.3831C24.474 16.3831 24.4041 16.3387 24.3851 16.2625C24.3597 16.1736 24.4105 16.0847 24.4994 16.0593C25.0518 15.9069 25.617 15.7862 26.1758 15.691C26.2647 15.6783 26.3473 15.7354 26.3663 15.8243C26.379 15.9132 26.3219 15.9958 26.233 16.0148C25.6805 16.1037 25.128 16.2244 24.5883 16.3768C24.5756 16.3768 24.5629 16.3831 24.5438 16.3831ZM32.9641 16.3069C32.9514 16.3069 32.9387 16.3069 32.926 16.3006C32.3799 16.1609 31.8274 16.0529 31.2749 15.9704C31.186 15.9577 31.1225 15.8751 31.1352 15.7862C31.1479 15.6973 31.2305 15.6338 31.3194 15.6465C31.8846 15.7291 32.4497 15.8434 33.0022 15.9831C33.0911 16.0021 33.1419 16.091 33.1228 16.1799C33.0974 16.2561 33.0339 16.3069 32.9641 16.3069ZM27.8967 15.8243C27.8141 15.8243 27.7379 15.7608 27.7316 15.6719C27.7252 15.583 27.7951 15.5068 27.884 15.5005C28.2142 15.4814 28.5508 15.4687 28.881 15.4687C29.1223 15.4687 29.3636 15.4751 29.5985 15.4814C29.6874 15.4878 29.7573 15.564 29.7573 15.6529C29.7509 15.7418 29.6747 15.8116 29.5858 15.8116C29.3509 15.7989 29.1159 15.7989 28.881 15.7989H28.8746C28.5508 15.7989 28.2205 15.8116 27.8967 15.8307C27.903 15.8243 27.903 15.8243 27.8967 15.8243ZM35.4279 16.9546C35.4152 16.9546 35.4025 16.9546 35.3835 16.9483L34.5643 16.7324C34.4754 16.707 34.4246 16.6181 34.45 16.5355C34.4754 16.4466 34.5643 16.3958 34.6468 16.4212L35.3136 16.599L35.5041 15.9386C35.5295 15.8497 35.6184 15.7989 35.7073 15.8243C35.7962 15.8497 35.847 15.9386 35.8216 16.0275L35.593 16.8403C35.5676 16.9038 35.4978 16.9546 35.4279 16.9546ZM66.8736 27.7054C66.8546 27.7054 66.8355 27.699 66.8101 27.6927C66.7276 27.6609 66.6895 27.5657 66.7212 27.4831C66.9371 26.9561 67.134 26.4226 67.3054 25.8956C67.3308 25.813 67.4261 25.7622 67.5086 25.794C67.5912 25.8194 67.642 25.9146 67.6102 25.9972C67.4324 26.5306 67.2356 27.0704 67.0197 27.6038C67.0006 27.6673 66.9371 27.7054 66.8736 27.7054ZM67.9468 24.4732C67.9341 24.4732 67.9214 24.4732 67.9087 24.4668C67.8198 24.4414 67.769 24.3525 67.7944 24.27C67.9341 23.7175 68.0547 23.165 68.15 22.6189C68.1627 22.53 68.2516 22.4729 68.3405 22.4856C68.4294 22.4983 68.4865 22.5872 68.4739 22.6761C68.3786 23.2285 68.2516 23.7937 68.1119 24.3525C68.0865 24.4224 68.0166 24.4732 67.9468 24.4732ZM68.5373 21.1203H68.5246C68.4357 21.114 68.3722 21.0314 68.3786 20.9425C68.4294 20.3774 68.4611 19.8122 68.4675 19.2597C68.4675 19.1708 68.5437 19.101 68.6326 19.101C68.7215 19.101 68.7977 19.1772 68.7914 19.2661C68.785 19.8312 68.7596 20.4091 68.7024 20.9806C68.6898 21.0568 68.6199 21.1203 68.5373 21.1203ZM68.5564 17.723C68.4738 17.723 68.404 17.6595 68.3913 17.577C68.3405 17.0118 68.2643 16.453 68.1627 15.9069C68.1436 15.818 68.2071 15.7354 68.296 15.7164C68.3849 15.6973 68.4675 15.7608 68.4865 15.8497C68.5881 16.4085 68.6707 16.98 68.7151 17.5516C68.7215 17.6405 68.658 17.723 68.5691 17.7294C68.5628 17.723 68.5564 17.723 68.5564 17.723ZM36.1264 14.5035C36.1137 14.5035 36.0947 14.5035 36.082 14.4972C35.9931 14.4718 35.9486 14.3829 35.974 14.294C36.1391 13.7415 36.3296 13.1954 36.5392 12.6683C36.5709 12.5858 36.6662 12.5413 36.7487 12.5794C36.8313 12.6112 36.8757 12.7064 36.8376 12.789C36.6281 13.3033 36.4439 13.8431 36.2852 14.3829C36.2598 14.4527 36.1963 14.5035 36.1264 14.5035ZM67.9277 14.3829C67.8579 14.3829 67.7944 14.3384 67.769 14.2686C67.6102 13.7288 67.4197 13.1954 67.2102 12.681C67.1784 12.5985 67.2165 12.5032 67.2991 12.4651C67.3816 12.4334 67.4769 12.4715 67.515 12.554C67.7309 13.0811 67.9214 13.6272 68.0865 14.1733C68.1119 14.2622 68.0611 14.3511 67.9785 14.3765C67.9595 14.3765 67.9468 14.3829 67.9277 14.3829ZM37.3964 11.3475C37.371 11.3475 37.3456 11.3412 37.3202 11.3285C37.2377 11.284 37.2123 11.1888 37.2504 11.1062C37.5171 10.5982 37.8092 10.0965 38.1204 9.62663C38.1712 9.55043 38.2728 9.53138 38.349 9.58218C38.4252 9.63298 38.4442 9.73458 38.3934 9.81078C38.0886 10.2743 37.7965 10.7633 37.5361 11.265C37.5107 11.3158 37.4536 11.3475 37.3964 11.3475ZM66.6323 11.2396C66.5752 11.2396 66.518 11.2078 66.4863 11.157C66.2513 10.7188 65.991 10.287 65.7116 9.86793C65.6798 9.81713 65.6417 9.76633 65.6099 9.71553C65.5591 9.63933 65.5782 9.53773 65.6544 9.48693C65.7306 9.43613 65.8322 9.45518 65.883 9.53138C65.9211 9.58218 65.9529 9.63298 65.9846 9.68378C66.2704 10.1092 66.5371 10.5537 66.7784 10.9983C66.8228 11.0745 66.7911 11.1761 66.7149 11.2205C66.6831 11.2332 66.6577 11.2396 66.6323 11.2396ZM39.2761 8.50901C39.238 8.50901 39.1999 8.49631 39.1745 8.47091C39.1046 8.41376 39.0983 8.31216 39.1554 8.24231C39.2697 8.10895 39.384 7.96925 39.4983 7.8359C39.7587 7.53745 40.0317 7.24534 40.3175 6.97229C40.381 6.90879 40.4826 6.90879 40.5461 6.97229C40.6096 7.03579 40.6096 7.13739 40.5461 7.20089C40.273 7.46759 40 7.75335 39.746 8.04545C39.6317 8.17246 39.5174 8.30581 39.4094 8.44551C39.365 8.48996 39.3205 8.50901 39.2761 8.50901ZM64.7146 8.43281C64.6701 8.43281 64.6257 8.41376 64.5876 8.37566C64.2256 7.9502 63.8383 7.53745 63.4319 7.15009C63.3684 7.08659 63.362 6.98499 63.4255 6.92149C63.489 6.85798 63.5906 6.85163 63.6541 6.91514C64.0669 7.30884 64.4669 7.7343 64.8352 8.16611C64.8924 8.23596 64.886 8.33756 64.8162 8.39471C64.7844 8.42011 64.7527 8.43281 64.7146 8.43281ZM41.7018 6.12772C41.651 6.12772 41.6066 6.10867 41.5748 6.06422C41.5177 5.99437 41.5304 5.89277 41.6002 5.83562C42.0447 5.48001 42.521 5.14981 43.0036 4.83865C43.0798 4.78785 43.1814 4.81325 43.2258 4.88945C43.2766 4.96565 43.2512 5.06726 43.175 5.11171C42.6988 5.41016 42.2352 5.74037 41.7971 6.08327C41.7717 6.11502 41.7336 6.12772 41.7018 6.12772ZM62.2571 6.07692C62.219 6.07692 62.1872 6.06422 62.1555 6.04517C61.711 5.70227 61.2474 5.37841 60.7712 5.07996C60.695 5.02916 60.6696 4.9339 60.7204 4.8577C60.7712 4.7815 60.8664 4.7561 60.9426 4.8069C61.4252 5.11171 61.9015 5.44191 62.3523 5.79117C62.4222 5.84832 62.4349 5.94992 62.3841 6.01977C62.3523 6.05787 62.3015 6.07692 62.2571 6.07692ZM44.5721 4.31159C44.5149 4.31159 44.4514 4.27984 44.426 4.22269C44.3879 4.14014 44.4197 4.04489 44.5022 4.00679C44.7753 3.87344 45.0547 3.74008 45.3404 3.61943C45.5881 3.51783 45.8357 3.41623 46.0834 3.32098C46.1659 3.28923 46.2612 3.33368 46.2929 3.41623C46.3247 3.49878 46.2802 3.59403 46.1977 3.62578C45.9564 3.71468 45.7087 3.81629 45.4738 3.91789C45.1944 4.03854 44.9213 4.16554 44.6546 4.29254C44.6229 4.30524 44.5975 4.31159 44.5721 4.31159ZM59.3741 4.27984C59.3487 4.27984 59.3233 4.27349 59.3043 4.26079C58.8026 4.01314 58.2819 3.79088 57.7549 3.59403C57.6723 3.56228 57.6279 3.46703 57.6596 3.38448C57.6914 3.30193 57.7866 3.25748 57.8692 3.28923C58.4026 3.48608 58.936 3.71468 59.4504 3.96869C59.5329 4.00679 59.5647 4.10839 59.5266 4.18459C59.4885 4.24174 59.4313 4.27984 59.3741 4.27984ZM47.7598 3.12412C47.69 3.12412 47.6201 3.07332 47.6011 3.00347C47.5757 2.91457 47.6328 2.82567 47.7154 2.80662C48.2678 2.66057 48.833 2.53991 49.3981 2.45101C49.487 2.43831 49.5696 2.49546 49.5823 2.58437C49.595 2.67327 49.5378 2.75582 49.4489 2.76852C48.8965 2.85742 48.344 2.97172 47.7979 3.11777C47.7852 3.11777 47.7725 3.12412 47.7598 3.12412ZM56.18 3.09872C56.1673 3.09872 56.1546 3.09872 56.1419 3.09237C55.6022 2.95267 55.0434 2.83837 54.4909 2.75582C54.402 2.74312 54.3385 2.66057 54.3512 2.57167C54.3639 2.48276 54.4465 2.41926 54.5354 2.43196C55.1005 2.52086 55.6657 2.63517 56.2181 2.77487C56.307 2.80027 56.3578 2.88917 56.3324 2.97172C56.3197 3.04792 56.2562 3.09872 56.18 3.09872ZM51.119 2.59072C51.0301 2.59072 50.9603 2.52086 50.9539 2.43831C50.9476 2.34941 51.0174 2.27321 51.1063 2.26686C51.6715 2.23511 52.2493 2.23511 52.8272 2.26051C52.9161 2.26686 52.9859 2.34306 52.9796 2.43196C52.9732 2.52086 52.897 2.59072 52.8081 2.58437C52.243 2.55897 51.6778 2.55897 51.1254 2.59072H51.119ZM66.6577 30.4232C66.6323 30.4232 66.6133 30.4169 66.5879 30.4105L65.8195 30.0549C65.7369 30.0168 65.7052 29.9279 65.7369 29.8454L66.0608 29.0643C66.0926 28.9817 66.1878 28.9436 66.2767 28.9754C66.3593 29.0071 66.3974 29.1024 66.3656 29.1913L66.0989 29.8263L66.7276 30.1121C66.8101 30.1502 66.8482 30.2454 66.8101 30.328C66.7784 30.3851 66.7212 30.4232 66.6577 30.4232ZM60.1171 69.7367C60.0917 69.7367 60.0663 69.7304 60.0409 69.7177C59.9647 69.6732 59.933 69.5779 59.9774 69.4954L60.2568 68.981C60.2759 68.9493 60.3076 68.9239 60.3394 68.9048L61.1522 68.581C61.2284 68.5492 61.3109 68.5175 61.3871 68.4857C61.4697 68.454 61.5649 68.4921 61.5967 68.5746C61.6284 68.6572 61.5903 68.7524 61.5078 68.7842C61.4316 68.8159 61.349 68.8477 61.2728 68.8794L60.5108 69.1779L60.2632 69.6414C60.2314 69.7049 60.1743 69.7367 60.1171 69.7367ZM63.0064 68.0857C62.9493 68.0857 62.8921 68.0539 62.8604 67.9968C62.8223 67.9142 62.854 67.819 62.9302 67.7809C63.4255 67.5269 63.9272 67.2538 64.4225 66.9554C64.4987 66.9109 64.6003 66.9363 64.6447 67.0125C64.6892 67.0887 64.6638 67.1903 64.5876 67.2348C64.0859 67.5332 63.5779 67.8126 63.0763 68.073C63.0509 68.0857 63.0255 68.0857 63.0064 68.0857ZM65.9465 66.3267C65.8957 66.3267 65.8449 66.3013 65.8132 66.2568C65.7624 66.1806 65.7814 66.079 65.8513 66.0282C66.3148 65.7107 66.772 65.3678 67.2229 65.0122C67.2927 64.9551 67.3943 64.9678 67.4515 65.0376C67.5086 65.1075 67.4959 65.2091 67.4261 65.2662C66.9752 65.6218 66.5053 65.9711 66.0418 66.2949C66.01 66.3203 65.9783 66.3267 65.9465 66.3267ZM68.639 64.1994C68.5945 64.1994 68.55 64.1804 68.5183 64.1423C68.4611 64.0724 68.4611 63.9708 68.531 63.9137C68.9501 63.539 69.3692 63.1389 69.7693 62.7389C69.8328 62.6754 69.9344 62.6754 69.9979 62.7389C70.0614 62.8024 70.0614 62.904 69.9979 62.9675C69.5915 63.3739 69.1724 63.7739 68.7469 64.155C68.7215 64.1867 68.6771 64.1994 68.639 64.1994ZM71.0583 61.7673C71.0202 61.7673 70.9821 61.7546 70.9504 61.7292C70.8805 61.6721 70.8742 61.5641 70.9377 61.5006C70.9948 61.4371 71.052 61.3673 71.1155 61.3038C71.433 60.9418 71.7378 60.5672 72.0363 60.1925C72.0934 60.1226 72.195 60.1099 72.2649 60.1671C72.3347 60.2242 72.3474 60.3258 72.2903 60.3957C71.9918 60.7767 71.6806 61.1514 71.3631 61.5197C71.306 61.5895 71.2425 61.653 71.1853 61.7229C71.1536 61.7483 71.1091 61.7673 71.0583 61.7673ZM73.1793 59.0685C73.1475 59.0685 73.1158 59.0622 73.084 59.0368C73.0078 58.986 72.9888 58.8844 73.0459 58.8082C73.3698 58.3383 73.6809 57.862 73.973 57.3794C74.0175 57.3032 74.1191 57.2778 74.1953 57.3222C74.2715 57.3667 74.2969 57.4683 74.2524 57.5445C73.954 58.0335 73.6365 58.5161 73.3126 58.9923C73.2809 59.0431 73.2301 59.0685 73.1793 59.0685ZM74.9636 56.1348C74.9382 56.1348 74.9129 56.1284 74.8875 56.1157C74.8049 56.0713 74.7795 55.976 74.8176 55.8935C75.0843 55.3918 75.332 54.8711 75.5606 54.3568C75.5987 54.2742 75.6939 54.2361 75.7765 54.2742C75.859 54.3123 75.8971 54.4075 75.859 54.4901C75.6241 55.0108 75.3764 55.5315 75.1033 56.0459C75.0779 56.103 75.0208 56.1348 74.9636 56.1348ZM76.3543 53.0042C76.3353 53.0042 76.3162 52.9978 76.2972 52.9915C76.2146 52.9597 76.1702 52.8645 76.2019 52.7819C76.3988 52.2485 76.5766 51.7024 76.7353 51.1626C76.7607 51.0737 76.8496 51.0293 76.9385 51.0547C77.0274 51.0801 77.0719 51.169 77.0465 51.2579C76.8877 51.804 76.7036 52.3565 76.5067 52.8962C76.4877 52.9661 76.4242 53.0042 76.3543 53.0042ZM77.3132 49.7085C77.3005 49.7085 77.2878 49.7085 77.2814 49.7021C77.1925 49.6831 77.1354 49.5942 77.1544 49.5116L77.1798 49.4037C77.2878 48.883 77.3767 48.3559 77.4338 47.8352C77.4465 47.7463 77.5227 47.6828 77.6116 47.6891C77.7005 47.7018 77.764 47.778 77.7577 47.8669C77.6942 48.4004 77.6116 48.9338 77.4973 49.4672L77.4719 49.5751C77.4592 49.6577 77.3894 49.7085 77.3132 49.7085ZM77.7005 46.3048C77.6116 46.3048 77.5354 46.2286 77.5354 46.1397V45.981C77.5354 45.4666 77.51 44.9522 77.4656 44.4442C77.4592 44.3553 77.5227 44.2728 77.6116 44.2664C77.7005 44.2601 77.7831 44.3236 77.7894 44.4125C77.8402 44.9332 77.8656 45.4603 77.8656 45.981V46.1397C77.8656 46.235 77.7894 46.3048 77.7005 46.3048ZM77.3767 42.8948C77.3005 42.8948 77.2306 42.844 77.2179 42.7615C77.11 42.209 76.9639 41.6565 76.7988 41.1168C76.7734 41.0279 76.8179 40.939 76.9068 40.9136C76.9957 40.8882 77.0846 40.9326 77.11 41.0215C77.2814 41.574 77.4275 42.1392 77.5354 42.698C77.5545 42.7869 77.4973 42.8694 77.4084 42.8885C77.4021 42.8948 77.3894 42.8948 77.3767 42.8948ZM76.3607 39.6245C76.2972 39.6245 76.24 39.5864 76.2083 39.5229C76.0622 39.1864 75.9098 38.8561 75.7447 38.5323C75.6558 38.3545 75.5606 38.1767 75.459 37.9989C75.4145 37.9227 75.4463 37.8211 75.5225 37.7766C75.5987 37.7322 75.7003 37.7639 75.7447 37.8401C75.8463 38.0179 75.9416 38.2021 76.0368 38.3799C76.2083 38.7101 76.367 39.053 76.5131 39.3896C76.5512 39.4721 76.5131 39.5674 76.4305 39.6055C76.4051 39.6182 76.3797 39.6245 76.3607 39.6245ZM74.6906 36.6273C74.6398 36.6273 74.589 36.6019 74.5572 36.5574C74.2334 36.0939 73.8841 35.643 73.5095 35.2175C73.4523 35.1477 73.4587 35.0461 73.5285 34.9889C73.5984 34.9318 73.7 34.9381 73.7571 35.008C74.1318 35.4461 74.4937 35.9034 74.824 36.3733C74.8748 36.4495 74.8557 36.5511 74.7858 36.6019C74.7604 36.6209 74.7287 36.6273 74.6906 36.6273ZM72.449 34.0364C72.4109 34.0364 72.3665 34.0237 72.3347 33.992C71.922 33.6046 71.4901 33.2363 71.0393 32.8934C70.9694 32.8363 70.9567 32.7347 71.0075 32.6648C71.0647 32.5949 71.1663 32.5823 71.2361 32.6331C71.6934 32.9823 72.1379 33.357 72.557 33.757C72.6205 33.8205 72.6268 33.9221 72.5633 33.9856C72.5379 34.0237 72.4935 34.0364 72.449 34.0364ZM69.7248 31.9599C69.6931 31.9599 69.6677 31.9536 69.6423 31.9345C69.1597 31.6361 68.658 31.363 68.15 31.1217C68.0674 31.0836 68.0357 30.9884 68.0738 30.9058C68.1119 30.8233 68.2071 30.7915 68.2897 30.8296C68.8104 31.0773 69.3184 31.3567 69.8137 31.6551C69.8899 31.6996 69.9153 31.8012 69.8645 31.8774C69.8328 31.9282 69.782 31.9599 69.7248 31.9599ZM58.8407 72.5244C58.7772 72.5244 58.7137 72.4863 58.6883 72.4228L58.3772 71.6354C58.3518 71.5782 58.3645 71.5147 58.4089 71.4639L58.9741 70.8353C59.0376 70.7654 59.1392 70.7654 59.2027 70.8226C59.2725 70.8861 59.2725 70.9877 59.2154 71.0512L58.7137 71.6036L58.9868 72.2958C59.0185 72.3783 58.9804 72.4736 58.8979 72.5053C58.8788 72.5244 58.8598 72.5244 58.8407 72.5244ZM53.0177 87.6884C53.005 87.6884 52.9923 87.6884 52.9796 87.6821C52.4081 87.5551 51.8747 87.282 51.4492 86.8947C51.3794 86.8312 51.3794 86.7296 51.4365 86.6661C51.5 86.5962 51.6016 86.5962 51.6651 86.6534C52.0571 87.0065 52.5341 87.2516 53.0494 87.3646C53.1384 87.3836 53.1955 87.4725 53.1764 87.5614C53.1637 87.6376 53.0939 87.6884 53.0177 87.6884ZM54.656 87.6059C54.5862 87.6059 54.5227 87.5614 54.5036 87.4979C54.4719 87.4154 54.5227 87.3201 54.6052 87.2884C54.9545 87.1677 55.2783 86.9836 55.5704 86.7296C55.6847 86.6343 55.7863 86.5264 55.8816 86.4121C55.9387 86.3422 56.0403 86.3359 56.1102 86.393C56.18 86.4502 56.1864 86.5518 56.1292 86.6216C56.0213 86.7486 55.907 86.8629 55.78 86.9709C55.4561 87.2503 55.0942 87.4598 54.7068 87.5932C54.6878 87.6059 54.6687 87.6059 54.656 87.6059ZM50.7063 85.5485C50.6364 85.5485 50.5666 85.4977 50.5475 85.4278C50.4713 85.1484 50.4332 84.8563 50.4332 84.5515V84.4943C50.4396 84.2467 50.4459 83.9927 50.4586 83.726C50.465 83.6371 50.5412 83.5672 50.6301 83.5736C50.719 83.5799 50.7888 83.6561 50.7825 83.745C50.7698 84.0054 50.7634 84.2594 50.7571 84.5007V84.5515C50.7571 84.8245 50.7888 85.0912 50.8587 85.3453C50.8841 85.4342 50.8333 85.5231 50.7444 85.5421C50.738 85.5485 50.719 85.5485 50.7063 85.5485ZM56.6817 85.1928H56.6563C56.5674 85.1801 56.5039 85.0976 56.523 85.0087C56.5484 84.869 56.5547 84.7229 56.5611 84.5769C56.5674 84.1895 56.5865 83.7768 56.6182 83.364C56.6246 83.2751 56.7008 83.2053 56.796 83.218C56.8849 83.2243 56.9548 83.3069 56.9421 83.3958C56.904 83.8022 56.8849 84.2022 56.8849 84.5832C56.8849 84.742 56.8722 84.9071 56.8468 85.0595C56.8278 85.1357 56.7643 85.1928 56.6817 85.1928ZM50.7698 82.2528H50.7507C50.6618 82.2401 50.5983 82.1575 50.611 82.0686C50.6809 81.5098 50.7698 80.9573 50.8714 80.4239C50.8904 80.335 50.973 80.2779 51.0619 80.2969C51.1508 80.316 51.2079 80.3985 51.1889 80.4874C51.0873 81.0145 50.9984 81.5606 50.9349 82.113C50.9222 82.1892 50.8523 82.2528 50.7698 82.2528ZM57.0056 81.8971H56.9738C56.8849 81.8781 56.8278 81.7955 56.8468 81.7066C56.9548 81.1351 57.0945 80.589 57.2532 80.081C57.2786 79.9921 57.3739 79.9477 57.4564 79.9731C57.5453 79.9985 57.5898 80.0937 57.5644 80.1763C57.4056 80.6716 57.2723 81.205 57.1707 81.7638C57.1516 81.8463 57.0818 81.8971 57.0056 81.8971ZM51.4111 79.0015C51.3984 79.0015 51.3794 79.0015 51.3667 78.9951C51.2778 78.9697 51.227 78.8809 51.2524 78.7919C51.4048 78.2458 51.5826 77.7061 51.7794 77.2044C51.8112 77.1219 51.9064 77.0774 51.989 77.1092C52.0715 77.1409 52.116 77.2362 52.0842 77.3187C51.8937 77.814 51.7223 78.3347 51.5699 78.8745C51.5508 78.957 51.481 79.0015 51.4111 79.0015ZM58.0279 78.7602C58.0025 78.7602 57.9771 78.7538 57.9517 78.7411C57.8692 78.6967 57.8438 78.6014 57.8819 78.5189C57.9771 78.3347 58.0787 78.1569 58.1803 77.9982C58.3772 77.6934 58.5423 77.3822 58.6883 77.0838C58.7264 77.0012 58.8217 76.9695 58.9042 77.0076C58.9868 77.0457 59.0185 77.1409 58.9804 77.2235C58.8344 77.5346 58.6566 77.8585 58.4534 78.176C58.3518 78.3347 58.2565 78.4998 58.1676 78.6776C58.1486 78.7284 58.0914 78.7602 58.0279 78.7602ZM59.3487 75.7439H59.3233C59.2344 75.7312 59.1773 75.6423 59.19 75.5534C59.2344 75.2803 59.2598 75.0009 59.2598 74.7342C59.2598 74.4739 59.2408 74.2135 59.1963 73.9595C59.1836 73.8706 59.2408 73.7881 59.3297 73.769C59.4186 73.7563 59.5012 73.8135 59.5202 73.9024C59.5647 74.1754 59.5901 74.4548 59.5901 74.7279C59.5901 75.0136 59.5647 75.3121 59.5139 75.6042C59.4948 75.6867 59.4249 75.7439 59.3487 75.7439Z" fill="#CFCFCE"/>
<path d="M45.9304 59.9956C45.7907 59.9511 45.7082 59.8051 45.7399 59.659C45.8796 59.005 46.1337 57.0682 45.3208 53.9376C44.4001 50.3815 45.6383 49.3719 47.2005 48.0891C47.518 47.8288 47.8418 47.5621 48.172 47.2636C50.0199 45.5618 49.8993 37.4464 49.8993 37.3702V37.2686L50.4771 37.2559V37.3575C50.4835 37.7004 50.5978 45.8094 48.5657 47.6891C48.2228 48.0066 47.8926 48.2733 47.5688 48.54C46.1082 49.7338 45.0541 50.5974 45.8796 53.7915C46.7242 57.0555 46.4639 59.0558 46.3051 59.786C46.267 59.9511 46.0892 60.0527 45.9304 59.9956ZM44.4191 71.3369C44.3112 71.4575 44.1207 71.4702 44.0064 71.3559C41.3965 68.9238 41.5552 66.5616 41.7013 64.2692C41.7965 62.7579 41.8981 61.2021 41.1615 59.64C40.7297 58.7256 40.2281 58.0207 39.6756 57.5381C39.701 57.6587 39.72 57.773 39.7264 57.881C39.7708 58.4906 39.5486 58.9796 39.085 59.2717C38.8183 59.4431 38.4818 59.532 38.1198 59.532C37.7515 59.532 37.3769 59.4368 37.0594 59.2526C36.5323 58.9542 36.2338 58.4525 36.2529 57.8873C36.2783 57.1126 36.8371 56.484 37.6436 56.3125C37.7833 56.2808 37.9293 56.2681 38.0817 56.2681C38.2468 56.2681 38.4119 56.2871 38.577 56.3189C38.0055 55.3092 37.1483 54.3884 36.2465 53.836C35.5544 53.4105 34.8495 53.1946 34.1447 53.1946C33.7065 53.1946 33.2747 53.2835 32.8619 53.4486L32.7667 53.4867L32.5508 52.9533L32.646 52.9152C33.135 52.7184 33.643 52.6168 34.1574 52.6168C34.9638 52.6168 35.7703 52.8644 36.5577 53.347C37.9547 54.2106 38.9263 55.595 39.3835 56.6237C40.2725 57.1063 41.0663 58.0588 41.6949 59.386C42.495 61.0814 42.3871 62.7134 42.2855 64.3009C42.1394 66.5489 41.9997 68.6825 44.4064 70.9241C44.508 71.0384 44.5207 71.2226 44.4191 71.3369ZM38.0817 56.865C37.9738 56.865 37.8595 56.8777 37.7579 56.8967C37.2118 57.011 36.8435 57.4111 36.8308 57.9191C36.8181 58.389 37.1483 58.6494 37.3451 58.7637C37.5737 58.8907 37.8468 58.9669 38.1198 58.9669C38.3675 58.9669 38.6024 58.9034 38.7739 58.7954C39.0469 58.624 39.1739 58.3255 39.1485 57.9381C39.1295 57.6841 39.0533 57.3857 38.9199 57.0555C38.6342 56.9285 38.3548 56.865 38.0817 56.865ZM53.6712 84.8308C53.5061 84.8372 53.3728 84.7038 53.3728 84.5387C53.3918 83.4084 53.5823 79.3062 55.4937 76.2899C56.6367 74.4929 55.8684 73.7817 54.8142 72.791C54.0078 72.0417 53.0997 71.1845 53.0489 69.7176C53.0172 68.7016 53.2966 67.9078 53.8871 67.3617C54.611 66.6886 55.6017 66.587 56.1224 66.587C56.3002 66.587 56.4208 66.5997 56.4335 66.5997L56.5351 66.6124L56.4716 67.1839L56.37 67.1712C56.3637 67.1712 56.2748 67.1648 56.1351 67.1648C55.6906 67.1648 54.8587 67.2474 54.2745 67.7808C53.8173 68.2063 53.595 68.8476 53.6204 69.6922C53.6585 70.9241 54.4396 71.6544 55.2016 72.3656C56.2176 73.3181 57.3733 74.3976 55.9763 76.5947C54.1221 79.5158 53.9506 83.4719 53.9443 84.5387C53.9506 84.7038 53.8236 84.8245 53.6712 84.8308Z" fill="#C2B59B"/>
<path d="M53.6463 5.30245C46.0325 4.40709 39.1363 9.84912 38.2409 17.4629C36.9519 28.4105 44.2418 38.3484 49.5124 40.4185C55.1131 39.6311 64.5177 31.6617 65.8131 20.7142C66.7021 13.1004 61.26 6.20417 53.6463 5.30245Z" fill="#FCCF07"/>
<path d="M53.6462 5.30208C48.3248 4.67342 43.3526 7.14996 40.5332 11.2966C43.2002 9.48044 46.5023 8.58508 49.9568 8.99149C57.5705 9.88685 63.0126 16.7894 62.1172 24.4032C61.5457 29.242 59.3867 33.5029 56.6752 36.8113C60.9551 33.3314 64.9938 27.6163 65.8066 20.7138C66.702 13.1 61.2599 6.20379 53.6462 5.30208Z" fill="#E9BF1E"/>
<path d="M44.0064 12.7509C44.0064 12.7509 38.4247 15.1639 40.4059 23.9652C42.3871 32.7664 49.8294 38.2973 49.8294 38.2973C49.8294 38.2973 58.2116 32.1187 56.8273 19.2978C56.0081 11.7158 47.6641 10.4395 44.0064 12.7509Z" fill="#FEDA3F"/>
<path d="M42.4574 29.3182C40.8191 21.8314 33.4212 17.0943 25.9281 18.7326C18.4413 20.3773 13.7041 27.7751 15.3425 35.2619C17.6031 45.5681 26.9885 52.4262 32.7481 53.2009C32.6465 53.8233 32.5322 54.9472 33.0275 55.0615C33.7196 55.2139 35.0405 54.8012 35.2564 54.2614C35.4024 53.8868 34.7293 53.2009 34.2975 52.8072C39.168 49.5877 44.699 39.5292 42.4574 29.3182Z" fill="#66C2C6"/>
<path d="M42.4574 29.3182C40.819 21.8314 33.4212 17.0943 25.9281 18.7326C22.3466 19.52 19.3938 21.6282 17.4697 24.4286C18.9048 23.4444 20.5432 22.7141 22.3466 22.3204C29.8334 20.6757 37.2376 25.4192 38.8759 32.906C40.546 40.5198 37.8917 48.051 34.4181 52.7183C39.2569 49.4226 44.6799 39.4466 42.4574 29.3182Z" fill="#53AFAF"/>
<path d="M63.9144 32.4236C56.4149 30.8424 49.0488 35.6367 47.4677 43.1425C45.3213 53.3091 50.8586 63.2724 55.7355 66.5046C55.3672 66.9999 54.7131 67.9968 55.1195 68.3334C55.672 68.7842 57.0309 69.0129 57.4691 68.6191C57.7612 68.3588 57.5008 67.5079 57.2913 66.9554C63.0381 66.1871 72.4426 59.24 74.627 48.8703C76.2082 41.3645 71.4139 34.0047 63.9144 32.4236Z" fill="#EE347F"/>
<path d="M63.9147 32.4237C61.6223 31.9411 59.3426 32.0554 57.2343 32.6587C64.1877 34.6336 67.5152 41.5425 67.0135 48.8705C66.423 57.4876 60.5682 64.4473 56.4152 66.8984C56.4787 67.0635 55.9389 67.2604 55.1515 67.4636C54.9864 67.8256 54.9166 68.1621 55.1261 68.3336C55.6786 68.7844 57.0375 69.013 57.4757 68.6193C57.7678 68.359 57.5074 67.508 57.2978 66.9556C63.0447 66.1872 72.4492 59.2402 74.6336 48.8705C76.2085 41.3647 71.4141 34.0049 63.9147 32.4237Z" fill="#DF1D77"/>
<path d="M18.4604 26.0353C18.4604 26.0353 14.155 31.325 18.4604 39.2562C22.7657 47.1875 31.4336 50.4642 31.4336 50.4642C31.4336 50.4642 37.3392 41.5232 34.2848 31.7504C32.0178 24.4668 21.3497 22.8095 18.4604 26.0353Z" fill="#83D0D4"/>
<path d="M54.1797 36.3414C54.1797 36.3414 47.9884 39.1926 48.363 48.2097C48.7377 57.2269 55.0751 63.9897 55.0751 63.9897C55.0751 63.9897 62.1808 58.0079 63.7493 47.8922C64.9114 40.3483 58.193 34.7221 54.1797 36.3414Z" fill="#EF519C"/>
<path d="M23.3695 30.8439C24.553 29.55 24.6503 27.7125 23.5867 26.7396C22.5232 25.7667 20.7015 26.0269 19.518 27.3208C18.3344 28.6147 18.2372 30.4522 19.3008 31.4251C20.3643 32.398 22.186 32.1378 23.3695 30.8439Z" fill="white"/>
<path d="M25.4239 33.5107C25.9636 32.9207 26.0088 32.0836 25.5249 31.641C25.041 31.1983 24.2112 31.3178 23.6715 31.9078C23.1318 32.4978 23.0866 33.3349 23.5705 33.7776C24.0544 34.2202 24.8842 34.1007 25.4239 33.5107Z" fill="white"/>
<path d="M47.2275 18.0585C48.7881 17.2588 49.5203 15.5707 48.8631 14.2879C48.2058 13.005 46.4078 12.6134 44.8472 13.413C43.2866 14.2126 42.5543 15.9008 43.2116 17.1836C43.8689 18.4664 45.6669 18.8581 47.2275 18.0585Z" fill="white"/>
<path d="M48.2241 21.2752C48.9357 20.9106 49.2702 20.1418 48.9711 19.5581C48.672 18.9745 47.8527 18.7969 47.1411 19.1616C46.4294 19.5262 46.095 20.2949 46.394 20.8786C46.6931 21.4623 47.5124 21.6398 48.2241 21.2752Z" fill="white"/>
<path d="M55.7367 43.2675C57.0529 42.7432 57.7707 41.4413 57.3398 40.3596C56.9089 39.2779 55.4925 38.8261 54.1763 39.3504C52.86 39.8747 52.1423 41.1767 52.5732 42.2584C53.0041 43.34 54.4204 43.7919 55.7367 43.2675Z" fill="white"/>
<path d="M56.4094 46.2266C57.0089 45.9878 57.336 45.3954 57.14 44.9034C56.9441 44.4115 56.2992 44.2062 55.6997 44.445C55.1002 44.6839 54.7731 45.2763 54.9691 45.7682C55.1651 46.2602 55.8099 46.4654 56.4094 46.2266Z" fill="white"/>
</g>
<defs>
<linearGradient id="paint0_linear_40016694_3614" x1="9.89902" y1="45.0006" x2="80.1034" y2="45.0006" gradientUnits="userSpaceOnUse">
<stop stop-color="#EBEBEC"/>
<stop offset="1" stop-color="#FBFCFC"/>
</linearGradient>
<clipPath id="clip0_40016694_3614">
<rect width="90" height="90" fill="white"/>
</clipPath>
</defs>
</svg>
