<svg width="90" height="90" viewBox="0 0 90 90" fill="none" xmlns="http://www.w3.org/2000/svg">
<g clip-path="url(#clip0_40016694_3592)">
<path d="M67.8471 27.7995C64.9092 27.3275 62.2247 27.6835 60.0573 28.8355C59.7365 29.006 59.4252 29.1939 59.125 29.3986L56.3807 19.1957C56.7762 19.4173 57.1631 19.654 57.5405 19.9051L57.7996 20.0762C58.653 20.6422 59.5351 21.2274 60.7594 21.1451C61.3793 21.1046 61.9742 20.8849 62.4717 20.5128C62.4724 20.5116 62.474 20.5111 62.4752 20.5102C63.1653 19.9921 63.6222 19.199 63.7305 18.3275C63.8779 17.1415 63.4023 15.8771 62.3321 14.5909C61.8932 14.0536 61.3481 13.532 60.7304 13.0505C62.4395 12.5454 64.4519 11.7536 64.4053 9.37953C64.405 9.36277 64.4045 9.34601 64.4039 9.32926C64.3677 8.32027 63.8277 5.97465 59.6182 5.98642C59.2886 5.9866 58.9467 6.00119 58.5359 6.03758C58.6805 5.74838 58.8172 5.4553 58.9459 5.15867C60.0034 2.68209 58.9531 1.31714 58.2333 0.724235C58.2188 0.712809 58.2049 0.700856 58.1905 0.689782C57.5681 0.195485 56.7829 -0.0469177 55.9796 0.00687139C54.8477 0.0829847 53.8015 0.713688 52.5894 2.04963C52.1264 2.55922 51.6717 3.14509 51.2419 3.78195C50.7492 3.16619 50.2283 2.6058 49.6971 2.12504C48.2868 0.844293 47.126 0.308688 45.9335 0.388668C45.1402 0.44193 44.4012 0.781715 43.8533 1.34492C43.8424 1.35599 43.8317 1.36759 43.8211 1.37867C42.3551 2.93222 42.9566 4.61392 43.8204 6.10261C43.1677 6.10613 42.5358 6.16203 42.0058 6.25924C40.2575 6.56914 39.0842 7.19914 38.4183 8.18597C37.9242 8.91845 37.7516 9.79051 37.9244 10.6067C38.352 12.751 40.2549 13.1873 41.5738 13.348C38.7961 16.0033 40.1083 18.1007 40.5811 18.6847C40.5955 18.7024 40.6103 18.7204 40.6251 18.7378C41.273 19.5024 42.228 19.9159 43.2625 19.8849L34.9424 33.4188C33.902 31.1915 32.3482 29.4196 30.435 28.315C28.5234 27.2113 26.2346 26.74 23.6316 26.9149C23.3157 26.9362 23.0005 26.9664 22.6864 27.0056C16.0855 27.8286 10.5855 32.0938 8.33317 38.1372C7.26372 41.007 7.33755 43.8581 8.5464 46.3822C10.0092 49.4357 13.0555 51.8759 17.1347 53.2658C15.475 57.4023 14.7072 62.113 14.8986 67.1064L14.9055 67.2397C14.922 67.6294 14.9411 68.0195 14.9684 68.4072C14.9993 68.8502 15.0375 69.2925 15.0832 69.7342C15.4599 73.3718 15.9549 76.644 18.2038 79.8455C18.4161 80.1472 18.637 80.4428 18.8662 80.732C20.0733 82.2439 21.4813 83.5791 23.0413 84.7199C23.3245 84.927 23.6122 85.1278 23.9042 85.3221C23.9134 85.3286 23.9369 85.3439 23.9461 85.3501C26.4583 87.0112 29.2682 88.1744 32.0703 88.7135C38.117 89.8764 43.9811 90.2456 49.9974 89.8418H49.9986C52.1019 89.6991 54.1979 89.4643 56.2807 89.1383C59.1241 88.6945 61.993 87.6185 64.577 86.0263L64.5842 86.0219C64.5897 86.0184 64.5953 86.0152 64.6008 86.0115C64.9088 85.8215 65.2122 85.6241 65.5108 85.4195C67.0859 84.3437 68.5201 83.0697 69.7589 81.6237C69.9974 81.3436 70.228 81.0569 70.4504 80.7639C72.8101 77.643 73.4193 74.3905 73.9238 70.7688C73.9854 70.3282 74.039 69.8857 74.0854 69.4454C74.1267 69.0534 74.1603 68.6602 74.1912 68.262L74.2009 68.1437C74.5665 63.164 73.9655 58.4332 72.454 54.2437C76.5882 52.9991 79.7255 50.6647 81.2973 47.6599C82.5942 45.18 82.7679 42.3332 81.7994 39.4278C79.7614 33.3095 74.4148 28.8538 67.8471 27.7995Z" fill="white"/>
<path d="M51.5874 13.6749C51.7899 13.6346 51.8632 12.9391 51.6853 11.8489C51.5098 10.7618 51.0505 9.28879 50.246 7.80397C49.4384 6.3209 48.4528 5.13368 47.6365 4.39469C46.8188 3.65202 46.1953 3.33473 46.0515 3.48274C45.7449 3.80741 47.4099 5.7911 48.8849 8.54313C50.3905 11.2786 51.1483 13.7552 51.5874 13.6749Z" fill="#EA62AE"/>
<path d="M56.2837 3.09086C56.1204 2.96095 55.5645 3.33291 54.8576 4.11215C54.1513 4.88857 53.3132 6.08617 52.6192 7.53197C51.9277 8.97883 51.5201 10.3826 51.3577 11.4196C51.1936 12.4588 51.2522 13.125 51.4557 13.1709C51.8889 13.2607 52.7043 10.9121 54.0162 8.20099C55.3066 5.47955 56.6253 3.37193 56.2837 3.09086Z" fill="#EA62AE"/>
<path d="M61.34 9.43991C61.3326 9.23372 60.684 9.04898 59.6203 9.05179C58.5607 9.05249 57.0901 9.27556 55.5654 9.84122C54.0421 10.4102 52.7837 11.2034 51.9816 11.8958C51.1753 12.5892 50.8051 13.1531 50.9344 13.314C51.2196 13.6574 53.305 12.3164 56.1059 11.2928C58.8942 10.2357 61.349 9.88622 61.34 9.43991Z" fill="#EA62AE"/>
<path d="M60.6348 18.0586C60.7999 17.938 60.61 17.3142 59.9584 16.5307C59.317 15.746 58.1897 14.8671 56.8031 14.2422C55.4182 13.6162 54.0984 13.3183 53.143 13.1868C52.1841 13.0595 51.5694 13.0986 51.5128 13.3034C51.4555 13.5108 51.9757 13.8476 52.8407 14.2396C53.7046 14.6354 54.9066 15.0838 56.161 15.6518C57.4145 16.2189 58.4715 16.8402 59.2228 17.3421C59.977 17.8371 60.4578 18.1922 60.6348 18.0586ZM40.9308 10.0078C40.9747 10.2282 41.6158 10.2745 42.5844 10.3727C43.0695 10.4177 43.6384 10.4949 44.2601 10.6005C44.8808 10.7181 45.5538 10.8709 46.2473 11.0817C46.9381 11.3005 47.5795 11.5557 48.1577 11.8103C48.7302 12.0752 49.2428 12.3336 49.668 12.5712C50.522 13.0386 51.0765 13.3635 51.2376 13.2065C51.3838 13.0676 51.0925 12.4501 50.3237 11.6937C49.9426 11.314 49.4328 10.9208 48.8241 10.548C48.156 10.1541 47.4457 9.83681 46.7064 9.60228C45.9643 9.37702 45.1991 9.23639 44.4253 9.18304C43.7124 9.1456 43.0695 9.18128 42.5404 9.27831C41.4787 9.4664 40.889 9.81058 40.9308 10.0078Z" fill="#EA62AE"/>
<path d="M42.9633 16.7562C43.2491 17.0937 44.9709 16.0608 47.2084 15.174C49.4354 14.261 51.3922 13.811 51.3639 13.3696C51.346 13.1622 50.8074 13.0031 49.9344 13.017C49.0647 13.0291 47.8644 13.2407 46.6292 13.7373C45.3949 14.2364 44.3836 14.9163 43.7485 15.5108C43.1101 16.1063 42.8324 16.5945 42.9633 16.7562Z" fill="#EA62AE"/>
<path d="M33.041 42.3654L51.4038 12.4956L60.3755 45.8531L33.041 42.3654Z" fill="#FEE600"/>
<path d="M43.7042 41.345C43.2461 40.9813 42.6862 40.7609 42.1687 40.6571C41.1271 40.4525 40.2234 40.5424 39.4861 40.4151C38.7477 40.3024 38.2674 40.0036 37.8995 39.4284C37.5392 38.8622 37.3453 38.124 37.2511 37.3862C37.1859 36.8698 37.15 36.3296 37.0913 35.7775L35.8193 37.8466C35.9303 38.6327 36.1377 39.4516 36.6153 40.2367C36.8877 40.6705 37.2569 41.0901 37.7339 41.3889C38.2087 41.6918 38.7447 41.8563 39.2393 41.936C40.2316 42.0928 41.1272 42.0158 41.8523 42.1733C42.2134 42.248 42.5024 42.3715 42.7439 42.5575C42.984 42.7449 43.1716 43.0059 43.3201 43.3165C43.376 43.4354 43.4187 43.5653 43.4616 43.6952L45.1045 43.9047C45.0239 43.4978 44.9053 43.0842 44.7174 42.667C44.4952 42.1886 44.1646 41.7069 43.7042 41.345ZM51.0552 41.1087C51.0147 40.2223 50.9385 39.2669 50.5009 38.2952C50.2788 37.8165 49.9481 37.3349 49.4877 36.9728C49.0297 36.6091 48.4698 36.3887 47.9523 36.2849C46.9106 36.0803 46.0069 36.1702 45.2697 36.0429C44.5312 35.9302 44.051 35.6316 43.6831 35.0562C43.3227 34.49 43.1288 33.7518 43.0346 33.014C42.9385 32.2513 42.91 31.4392 42.7696 30.6086C42.6409 29.7849 42.3408 28.9129 41.8365 28.2208C41.8189 28.1957 41.798 28.1749 41.7799 28.1503L40.9745 29.4604C41.1654 29.8679 41.29 30.3205 41.36 30.8317C41.464 31.5403 41.4762 32.3283 41.5653 33.1849C41.666 34.0576 41.8623 34.9824 42.3988 35.8643C42.6711 36.2981 43.0404 36.7177 43.5173 37.0165C43.9921 37.3194 44.5281 37.4839 45.0227 37.5636C46.015 37.7204 46.9106 37.6434 47.6357 37.8009C47.9968 37.8756 48.2857 37.9992 48.5273 38.1851C48.7674 38.3725 48.9549 38.6337 49.1035 38.9443C49.3991 39.5729 49.4995 40.3738 49.5391 41.1703C49.5688 41.9776 49.5733 42.8806 49.7576 43.7672C49.8098 44.0195 49.8794 44.2735 49.9681 44.525L51.695 44.7453C51.4607 44.4041 51.2997 43.9748 51.2088 43.4798C51.0733 42.7642 51.0742 41.9926 51.0552 41.1087ZM56.992 39.1083C56.8567 38.3922 56.8577 37.6207 56.8386 36.7369C56.7983 35.8504 56.7218 34.895 56.2843 33.9233C56.0621 33.4447 55.7317 32.963 55.2713 32.6011C54.8132 32.2374 54.2533 32.017 53.7358 31.9133C52.6942 31.7087 51.7905 31.7985 51.0532 31.6712C50.3148 31.5585 49.8346 31.2597 49.4666 30.6846C49.1063 30.1184 48.9124 29.3801 48.8182 28.6423C48.722 27.8796 48.6936 27.0675 48.5531 26.2369C48.4244 25.4132 48.1244 24.5412 47.6201 23.8491C47.1272 23.1513 46.4919 22.6354 45.8503 22.2372C45.7431 22.172 45.635 22.1147 45.5269 22.0556L44.8622 23.1367C44.9621 23.1959 45.0619 23.2552 45.1591 23.3198C45.6768 23.6707 46.1576 24.0998 46.4996 24.6236C46.8472 25.1422 47.0456 25.746 47.1433 26.46C47.2474 27.1687 47.2595 27.9566 47.3487 28.8134C47.4494 29.6861 47.6457 30.6109 48.1822 31.4928C48.4545 31.9266 48.8238 32.3462 49.3007 32.645C49.7755 32.9479 50.3114 33.1124 50.8061 33.1921C51.7984 33.3489 52.694 33.2719 53.4191 33.4294C53.7801 33.5041 54.0691 33.6277 54.3106 33.8136C54.5508 34.001 54.7383 34.2622 54.8869 34.5728C55.1827 35.2014 55.2829 36.0023 55.3224 36.7987C55.3521 37.6061 55.3567 38.5091 55.5409 39.3957C55.6334 39.8417 55.7719 40.2945 55.995 40.7262C56.2159 41.1565 56.5301 41.5631 56.9178 41.8707C57.307 42.1805 57.7428 42.3858 58.1581 42.5185C58.5753 42.654 58.9755 42.7273 59.3528 42.7899L59.56 42.8214L59.1659 41.3561C58.6375 41.23 58.1601 41.0583 57.8219 40.7663C57.3859 40.4031 57.1223 39.8173 56.992 39.1083ZM54.6499 24.5656L53.2201 19.2495C52.7569 18.6694 52.2007 18.2173 51.6337 17.8655C50.9861 17.472 50.3202 17.1932 49.6677 16.9921C49.361 16.8979 49.0678 16.8228 48.7874 16.752L48.1669 17.7613C48.5473 17.8817 48.927 17.9933 49.2886 18.1257C49.8548 18.3308 50.4197 18.6006 50.9425 18.9483C51.4602 19.2992 51.9409 19.7283 52.283 20.2521C52.6305 20.7707 52.829 21.3746 52.9267 22.0885C53.0308 22.7972 53.0429 23.5851 53.132 24.4419C53.2328 25.3146 53.4291 26.2394 53.9656 27.1213C54.2379 27.5551 54.6072 27.9747 55.0843 28.2735C55.2913 28.4055 55.5107 28.5073 55.7325 28.5912L54.964 25.7333" fill="#14B9A1"/>
<path d="M56.5137 43.8031C56.5657 41.4775 56.6831 39.1196 57.3917 36.9081C58.1001 34.6966 59.4733 32.6176 61.4957 31.5427C63.2726 30.5984 65.3827 30.5089 67.361 30.8264C72.6722 31.6789 77.1499 35.1699 78.8915 40.397C80.8258 46.2027 76.3745 49.8992 71.45 51.3443C69.5623 51.8982 67.5533 52.165 65.5954 51.9163" fill="#8AB4D6"/>
<path d="M59.7412 44.954C59.7699 43.6754 59.8342 42.3788 60.222 41.1628C60.6097 39.9467 61.3612 38.8036 62.4679 38.2124C63.4404 37.6932 64.5949 37.6438 65.6775 37.8183C68.5837 38.2868 71.0337 40.2062 71.9867 43.08C73.0449 46.272 70.6089 48.3047 67.9142 49.0995C66.8811 49.4041 65.7818 49.5509 64.7104 49.4143" fill="#EA62AE"/>
<path d="M33.4506 43.3979C33.4802 41.0719 33.4457 38.7112 32.8154 36.4761C32.185 34.2411 30.8856 32.1152 28.9023 30.97C27.1596 29.9638 25.0539 29.8003 23.0658 30.0482C17.7279 30.7137 13.1305 34.0452 11.2064 39.2079C9.06944 44.9421 13.3882 48.7928 18.2589 50.4098C20.1261 51.0296 22.1244 51.3669 24.0899 51.1869" fill="#8AB4D6"/>
<path d="M30.1843 44.4352C30.2006 43.1562 30.1818 41.8582 29.837 40.6293C29.4921 39.4005 28.7812 38.2317 27.6959 37.602C26.7425 37.0489 25.5903 36.959 24.5022 37.0954C21.5812 37.4616 19.0653 39.2936 18.0122 42.1323C16.8425 45.2853 19.2055 47.4022 21.8707 48.2911C22.8924 48.6318 23.9859 48.8172 25.0613 48.7181" fill="#EA62AE"/>
<path d="M67.1871 50.4275C65.518 47.8455 63.6535 45.3606 60.9627 43.8273C51.4019 38.3797 38.7291 38.1573 28.9833 43.2657C26.2402 44.7036 24.2898 47.1214 22.5309 49.6432C19.4786 54.0196 18.1061 59.2695 17.9486 64.5649C17.9005 66.1863 22.3722 75.4201 24.2434 78.0842C25.7111 80.1741 24.191 81.9655 26.4556 83.3123C28.3948 84.4658 30.5202 85.2932 32.6501 85.703C40.4003 87.1939 48.0118 87.3274 55.808 86.1097C57.9703 85.772 60.143 85.0092 62.1362 83.9088C64.425 82.6451 65.7573 80.9361 67.2855 78.915C69.249 76.318 69.7329 73.471 70.1681 70.3451C70.3914 68.7422 71.2342 67.116 71.2425 65.4902C71.2696 60.1962 70.0818 54.9054 67.1871 50.4275Z" fill="#A0C6EB"/>
<path d="M33.046 59.0323C33.0222 60.3869 32.4522 61.4752 31.7728 61.4632C31.0934 61.4513 30.562 60.3437 30.5857 58.9891C30.6095 57.6345 31.1795 56.5462 31.8589 56.5582C32.5381 56.5702 33.0697 57.6778 33.046 59.0323ZM58.8939 59.4862C58.8702 60.8408 58.3001 61.929 57.6207 61.9171C56.9413 61.9051 56.4099 60.7975 56.4337 59.443C56.4574 58.0884 57.0274 57.0001 57.7068 57.0121C58.3862 57.024 58.9176 58.1318 58.8939 59.4862Z" fill="#426887"/>
<path d="M55.9439 67.8357C55.2046 64.2435 54.1474 60.5354 52.0456 57.4815C50.8146 55.693 49.0584 54.2848 47.0297 53.5045C45.1587 52.7848 42.7492 53.2118 41.0188 54.1642C39.6497 54.9176 38.4545 55.9717 37.5243 57.2266C35.3167 60.2047 34.13 63.8735 33.2648 67.4376C32.5179 70.515 32.9412 74.3748 35.6688 76.4023C37.9449 78.0942 40.9489 78.7579 43.735 78.898C43.7681 78.8998 43.8013 78.8987 43.8341 78.9049C44.025 78.9117 44.2156 78.9093 44.4063 78.9126C44.597 78.9161 44.7876 78.9251 44.9787 78.9203C45.0117 78.92 45.0448 78.9221 45.0778 78.9217C47.8671 78.8796 50.8925 78.3216 53.2267 76.7108C56.0237 74.78 56.5822 70.9374 55.9439 67.8357Z" fill="#F7E8D7"/>
<path d="M44.4811 73.3048C44.6679 73.3081 44.8377 72.2594 44.8606 70.9625C44.8832 69.6657 44.7504 68.6117 44.5637 68.6084C44.3768 68.6051 44.207 69.6538 44.1842 70.9505C44.1615 72.2474 44.2944 73.3014 44.4811 73.3048Z" fill="#723850"/>
<path d="M47.1894 71.1289C47.0908 71.0983 46.934 71.4512 46.54 71.8692C46.1582 72.2853 45.4834 72.7608 44.6532 72.8461C43.8225 72.9252 43.0675 72.5914 42.6115 72.2584C42.1432 71.9259 41.9203 71.6105 41.8294 71.6599C41.7547 71.6914 41.8316 72.1197 42.2951 72.6174C42.7396 73.1053 43.6396 73.6202 44.7198 73.5195C45.7988 73.4065 46.5803 72.7251 46.9204 72.1593C47.2776 71.5801 47.2688 71.145 47.1894 71.1289ZM51.2888 62.3992C51.0091 60.3329 50.2843 58.2722 48.8879 56.7503C46.6132 54.2714 43.0276 54.2236 40.6819 56.6062C39.2328 58.0782 38.4363 60.1121 38.0843 62.1674C37.7531 64.1006 37.8478 66.2782 39.1022 67.7644C40.0057 68.8347 41.3914 69.3816 42.7676 69.5349C43.1452 69.5769 43.5111 69.6447 43.8914 69.6799C46.0209 69.8759 48.4636 69.5811 50.0748 67.9571C51.3807 66.5158 51.5519 64.343 51.2888 62.3992Z" fill="#723850"/>
<path d="M59.0287 76.1016C58.9754 79.1333 60.1681 81.896 62.1337 83.9043C64.4225 82.6406 66.4772 80.9362 68.0057 78.9149C69.9691 76.3179 70.4531 73.471 70.8883 70.3451C71.1126 68.7363 71.2295 67.1144 71.2383 65.4902C70.861 65.4442 70.4815 65.4176 70.1015 65.4107C64.0917 65.3052 59.1342 70.0918 59.0287 76.1016ZM19.1771 64.5165C18.7686 64.51 18.3601 64.5263 17.9534 64.5652C17.9057 66.1852 17.9656 67.8065 18.1328 69.4185C18.458 72.5578 18.8417 75.4202 20.7129 78.0844C22.1807 80.1742 24.1938 81.9614 26.4584 83.3082C28.5118 81.3683 29.8145 78.6368 29.868 75.5893C29.9735 69.5795 25.1871 64.6222 19.1771 64.5165Z" fill="#EA62AE"/>
<path d="M37.547 45.4951C37.666 45.5269 37.8981 45.0437 38.1088 44.4293C38.3184 43.8146 38.431 43.2904 38.3175 43.2428C38.2057 43.1957 37.9051 43.6555 37.69 44.2861C37.4737 44.9162 37.4298 45.4638 37.547 45.4951ZM42.6841 48.5089C42.8052 48.5259 42.9811 47.985 43.0771 47.3009C43.1733 46.6167 43.1531 46.0484 43.0319 46.0314C42.9108 46.0143 42.7349 46.5552 42.6389 47.2392C42.5427 47.9235 42.563 48.4918 42.6841 48.5089ZM49.2337 45.7735C49.3543 45.7679 49.4223 45.1398 49.313 44.3789C49.2054 43.6176 48.9647 43.0336 48.8473 43.0619C48.7271 43.0904 48.7705 43.7026 48.8749 44.4415C48.9811 45.1797 49.1103 45.7798 49.2337 45.7735ZM48.5002 50.9473C48.6209 50.928 48.6529 50.5033 48.5719 49.9989C48.4908 49.4946 48.3272 49.1016 48.2064 49.1209C48.0858 49.1403 48.0537 49.5649 48.1349 50.0693C48.2159 50.5736 48.3796 50.9668 48.5002 50.9473ZM44.4521 43.4968C44.5692 43.5267 44.7648 43.1521 44.8149 42.649C44.8666 42.1461 44.7499 41.7399 44.6293 41.7457C44.5059 41.7509 44.4231 42.137 44.3746 42.6044C44.3285 43.0721 44.3322 43.4669 44.4521 43.4968ZM29.6367 46.8208C29.7482 46.8741 30.0711 46.4274 30.4145 45.8544C30.7564 45.2806 30.9967 44.7846 30.8971 44.7116C30.7999 44.6399 30.3885 45.0338 30.0347 45.6274C29.6794 46.2204 29.5274 46.7691 29.6367 46.8208ZM32.3568 49.2742C32.4691 49.3224 32.7134 49.004 32.9024 48.5632C33.0913 48.1223 33.1536 47.7259 33.0412 47.6778C32.9289 47.6296 32.6848 47.9479 32.4956 48.3888C32.3065 48.8297 32.2444 49.226 32.3568 49.2742ZM37.1547 51.189C37.2704 51.2284 37.5194 50.8049 37.7109 50.2433C37.9023 49.6817 37.9638 49.1942 37.8482 49.1548C37.7325 49.1155 37.4834 49.5389 37.292 50.1005C37.1004 50.6622 37.039 51.1494 37.1547 51.189ZM25.1105 50.3196C25.0073 50.254 24.7387 50.4922 24.5104 50.8515C24.2821 51.2108 24.1806 51.5551 24.2838 51.6207C24.387 51.6863 24.6556 51.4481 24.8839 51.0888C25.1123 50.7295 25.2137 50.3851 25.1105 50.3196ZM28.5054 52.6453C28.4143 52.5659 28.0223 52.867 27.6834 53.3581C27.3435 53.8484 27.1999 54.3216 27.3064 54.3787C27.415 54.4376 27.7225 54.078 28.0473 53.6098C28.3707 53.1409 28.5987 52.7262 28.5054 52.6453ZM34.3709 55.6709C34.4742 55.7321 34.805 55.3592 35.0082 54.7944C35.2134 54.2304 35.1979 53.7322 35.0793 53.713C34.9569 53.6919 34.7827 54.1214 34.592 54.6438C34.4043 55.1674 34.2633 55.6088 34.3709 55.6709ZM20.9558 57.9205C21.0776 57.9439 21.2537 57.5488 21.4393 57.0659C21.6221 56.582 21.7538 56.1697 21.6475 56.1061C21.5448 56.0434 21.2249 56.3837 21.0259 56.9082C20.8251 57.432 20.8373 57.8991 20.9558 57.9205ZM27.5207 61.6814C27.6325 61.7306 27.9153 61.334 28.1522 60.7956C28.3892 60.2572 28.4906 59.7806 28.3788 59.7314C28.267 59.6822 27.9842 60.0788 27.7472 60.6172C27.5103 61.1558 27.4089 61.6322 27.5207 61.6814ZM23.0069 61.8303C23.1302 61.8464 23.2989 61.3156 23.4898 60.6694C23.6776 60.0222 23.8219 59.4841 23.7092 59.4314C23.6011 59.3792 23.2641 59.8608 23.0651 60.5449C22.8637 61.2286 22.8878 61.8158 23.0069 61.8303ZM30.5582 64.5204C30.6798 64.5403 30.8224 64.2826 30.9266 63.9583C31.0293 63.6334 31.0621 63.3409 30.9516 63.2866C30.8431 63.2326 30.6192 63.4643 30.5051 63.824C30.3899 64.1831 30.4384 64.5016 30.5582 64.5204ZM40.3655 52.4156C40.4875 52.4242 40.6301 51.8102 40.6842 51.0443C40.7384 50.2783 40.6833 49.6504 40.5615 49.6418C40.4397 49.6331 40.297 50.2472 40.2428 51.013C40.1887 51.7789 40.2435 52.407 40.3655 52.4156ZM54.5913 44.1889C54.7089 44.1555 54.7152 43.8148 54.6056 43.4281C54.4959 43.0414 54.3115 42.7548 54.1939 42.7882C54.0763 42.8216 54.07 43.1621 54.1796 43.549C54.2895 43.9357 54.4737 44.2222 54.5913 44.1889ZM58.8728 46.3812C58.9943 46.3677 59.0361 45.8486 58.9665 45.2217C58.8969 44.5949 58.7419 44.0976 58.6204 44.1112C58.4989 44.1247 58.4569 44.6438 58.5267 45.2706C58.5963 45.8974 58.7514 46.3947 58.8728 46.3812ZM53.261 49.6446C53.3781 49.6098 53.3805 49.2691 53.2661 48.8836C53.1519 48.4981 52.9641 48.2139 52.847 48.2485C52.73 48.2833 52.7275 48.624 52.8419 49.0095C52.956 49.395 53.1438 49.6794 53.261 49.6446ZM58.8712 50.8385C58.9902 50.8075 58.966 50.3194 58.8559 49.74C58.745 49.1606 58.5879 48.6978 58.4659 48.7129C58.3453 48.7275 58.3073 49.2276 58.4212 49.8228C58.5343 50.4184 58.7536 50.8692 58.8712 50.8385ZM53.8959 55.2095C54.0088 55.1544 53.8341 54.5784 53.6709 53.8693C53.5025 53.1616 53.4036 52.5678 53.2781 52.5685C53.1592 52.5662 53.0596 53.2066 53.2401 53.97C53.4171 54.7345 53.7905 55.2641 53.8959 55.2095ZM64.7703 51.9652C64.8867 51.9201 64.7568 51.3182 64.6116 50.5861C64.4625 49.8546 64.3495 49.2494 64.2247 49.2528C64.1051 49.2542 64.0204 49.8991 64.1777 50.6732C64.3321 51.4483 64.6595 52.0102 64.7703 51.9652ZM36.3273 81.8723C36.441 81.917 36.7374 81.4325 36.9891 80.7905C37.2408 80.1484 37.3528 79.5919 37.2389 79.5472C37.1252 79.5026 36.8288 79.9871 36.5771 80.629C36.3254 81.2711 36.2136 81.8277 36.3273 81.8723ZM32.0105 78.6601C32.1194 78.7155 32.4232 78.3365 32.689 77.8137C32.9548 77.2907 33.082 76.8221 32.973 76.7667C32.8641 76.7114 32.5603 77.0904 32.2945 77.6131C32.0287 78.1359 31.9015 78.6047 32.0105 78.6601ZM33.341 81.4568C33.2358 81.3965 32.8342 81.9008 32.4919 82.6076C32.1485 83.3139 32.0008 83.9414 32.1133 83.9868C32.2276 84.033 32.5538 83.4923 32.8901 82.801C33.2251 82.1087 33.448 81.5178 33.341 81.4568ZM42.5362 82.2731C42.6574 82.2887 42.8319 81.7139 42.926 80.989C43.02 80.2643 42.998 79.6638 42.8767 79.6481C42.7556 79.6325 42.5811 80.2073 42.487 80.9321C42.393 81.657 42.415 82.2574 42.5362 82.2731ZM46.9749 83.2281C47.093 83.2548 47.2572 82.9716 47.2827 82.5886C47.3091 82.2056 47.1844 81.9029 47.0637 81.9136C46.9408 81.9238 46.8654 82.2131 46.8411 82.5589C46.8186 82.9047 46.8545 83.2014 46.9749 83.2281ZM40.1432 84.7152C40.2667 84.7154 40.3662 84.2817 40.4371 83.7526C40.5058 83.2234 40.5221 82.7788 40.4028 82.7468C40.2862 82.715 40.0716 83.1334 39.9983 83.6948C39.9236 84.2559 40.0226 84.7157 40.1432 84.7152ZM53.1265 81.6586C53.2411 81.6129 53.1715 81.1711 53.0274 80.6538C52.8817 80.137 52.7113 79.7234 52.5897 79.7439C52.4703 79.7636 52.4485 80.231 52.6013 80.7733C52.7526 81.316 53.0142 81.7039 53.1265 81.6586ZM57.0911 79.7582C57.2091 79.726 57.1734 79.2208 57.0117 78.6298C56.8499 78.039 56.6232 77.5861 56.5054 77.6182C56.3875 77.6506 56.4231 78.1558 56.5849 78.7466C56.7466 79.3375 56.9733 79.7905 57.0911 79.7582ZM56.5411 84.0497C56.6583 84.0153 56.6573 83.6596 56.5388 83.2554C56.4203 82.8511 56.2291 82.5512 56.1118 82.5854C55.9946 82.6199 55.9955 82.9755 56.1141 83.3798C56.2326 83.7841 56.4238 84.084 56.5411 84.0497ZM50.1492 85.2566C50.2689 85.2412 50.3033 84.7555 50.1465 84.19C49.9913 83.6241 49.7125 83.2248 49.6019 83.2729C49.4882 83.3216 49.5738 83.7741 49.7199 84.3078C49.8681 84.8407 50.0266 85.2733 50.1492 85.2566ZM62.0573 56.304C62.178 56.3012 62.2622 55.7408 62.1733 55.0592C62.0859 54.3773 61.862 53.8568 61.7444 53.8848C61.624 53.9129 61.6503 54.459 61.7344 55.1159C61.8201 55.7725 61.9337 56.3074 62.0573 56.304ZM68.2283 59.7715C68.3492 59.7543 68.3844 59.2983 68.3068 58.753C68.2293 58.2078 68.0683 57.7797 67.9472 57.797C67.8262 57.8142 67.7911 58.2702 67.8686 58.8154C67.9463 59.3607 68.1071 59.7889 68.2283 59.7715ZM64.8926 63.2896C65.0122 63.2639 64.948 62.4903 64.7492 61.5615C64.5504 60.6327 64.2925 59.9005 64.173 59.926C64.0535 59.9515 64.1178 60.7253 64.3164 61.6541C64.5151 62.583 64.7731 63.3151 64.8926 63.2896ZM60.0506 67.1596C60.1683 67.183 60.3635 66.6809 60.3693 66.0302C60.3773 65.3796 60.1929 64.8736 60.0746 64.8943C59.952 64.9143 59.9349 65.4183 59.9266 66.0254C59.9221 66.6328 59.9284 67.1369 60.0506 67.1596ZM58.1672 69.5374C58.2866 69.5418 58.4031 68.8562 58.2739 68.0202C58.1481 67.1839 57.8324 66.564 57.7199 66.6039C57.6012 66.6437 57.7176 67.2939 57.8364 68.087C57.9595 68.8796 58.0423 69.5347 58.1672 69.5374Z" fill="#C0E0FC"/>
</g>
<defs>
<clipPath id="clip0_40016694_3592">
<rect width="90" height="90" fill="white"/>
</clipPath>
</defs>
</svg>
