<svg width="90" height="90" viewBox="0 0 90 90" fill="none" xmlns="http://www.w3.org/2000/svg">
<g clip-path="url(#clip0_40016694_3557)">
<path d="M12.3318 69.0991C13.6856 70.1916 15.6366 70.4569 17.3227 69.9559C18.5896 73.802 23.2715 74.9266 26.6592 73.0423C28.767 75.9622 33.3088 76.9035 36.2818 74.7901C37.3706 75.6943 38.6982 76.2701 40.0862 76.4264L40.1055 79.6921C35.7351 79.3702 31.602 82.2632 30.6986 86.6062C30.3124 88.2233 31.6009 89.9275 33.259 89.9965C33.4862 90.0289 57.0802 89.8471 57.3126 89.8619C64.1624 88.6291 57.1435 78.4567 50.5473 79.6305L50.525 75.8577C52.1096 75.7435 53.6412 74.9628 54.7439 73.7387C57.2472 75.4172 61.4252 74.8129 63.0918 72.4508C66.1048 74.3633 70.0655 72.8656 72.1035 69.9696C79.3085 71.2363 80.4319 63.2968 79.715 57.1212C79.6373 53.9964 77.6802 51.5859 74.6506 50.8604C75.1873 48.6978 74.3553 45.4574 73.8858 42.8093C73.2938 36.8948 70.6808 34.9211 65.3463 33.8307C66.558 30.5902 65.8619 25.5075 63.4384 22.9785C61.8393 21.4234 59.6092 20.6812 57.3101 20.265C57.5074 19.2674 57.905 18.1925 58.0438 17.1727C58.5023 15.1786 59.442 12.8361 57.4912 11.3274C58.8825 9.24914 58.509 6.46634 57.963 4.25291C58.1541 3.65056 58.1364 3.00135 57.9128 2.41031C57.6891 1.81927 57.2726 1.32097 56.7306 0.996032C55.0433 -0.0579525 53.5189 1.09728 52.2946 2.29875C50.5179 3.56367 48.4914 6.06293 48.7173 8.71845C47.8383 9.10798 47.1939 9.95437 47.0737 10.9512C46.6197 13.8045 46.2829 16.7743 46.0086 19.3087C45.8701 19.3066 45.7309 19.3047 45.5904 19.3033C45.6516 16.7615 45.6903 13.8615 45.6245 11.4049C45.636 10.3984 45.1102 9.47765 44.2897 8.97439C44.8625 6.36738 43.1826 3.62765 41.5884 2.13738C40.5341 0.789489 39.173 -0.571234 37.3632 0.250016C35.2412 1.24388 36.0406 2.61533 35.3844 4.33465C34.5602 6.16013 34.4018 8.52703 35.2482 10.4038C34.249 11.0959 33.4879 12.1922 33.6885 13.4519C33.8678 15.5883 34.0842 17.7364 34.3097 19.8683C30.6951 20.6964 26.7762 21.3457 25.0532 24.829C23.8206 27.4226 22.7067 30.7614 23.8927 33.4553C18.2408 34.9935 14.7519 36.841 15.1986 43.0394C15.146 45.5916 13.5629 47.4548 15.0307 51.4475C12.3047 52.2359 10.8127 55.8211 10.597 58.2671C10.4012 61.8367 8.88909 65.8386 12.3318 69.0991Z" fill="white"/>
<path d="M51.484 82.433L47.7557 82.455L47.6495 64.4761L42.8248 64.5045L42.931 82.4835L39.2027 82.5054C36.3661 82.5221 34.0159 84.5295 33.4453 87.1933L57.2962 87.0525C56.6943 84.3958 54.3206 82.4163 51.484 82.433Z" fill="#793D91"/>
<path d="M20.9831 53.9803C18.9978 53.9503 16.1616 53.2292 14.7309 54.9608C13.8783 55.993 13.5749 57.3636 13.3738 58.6872C13.1353 60.2584 13.0031 61.8438 12.9783 63.4328C12.9588 64.6889 13.0871 66.1164 14.0727 66.8952C14.948 67.5865 16.2466 67.5 17.2347 66.9825C18.2228 66.4648 18.9704 65.5944 19.6928 64.7445C19.5896 66.1316 19.491 67.5608 19.9236 68.8829C20.6869 71.2153 23.1149 71.6172 25.1967 70.6331C26.4875 70.023 27.4926 68.8368 27.8825 67.4635C27.6703 69.1438 28.272 70.9392 29.5531 72.047C30.8342 73.1547 32.7845 73.4775 34.2976 72.7167C35.5471 72.0884 35.9913 70.5704 36.6125 69.3949C36.3607 71.8149 38.9258 73.9544 41.3368 73.6272C43.7478 73.3003 45.5879 70.9636 45.7631 68.537C45.6638 71.8481 49.753 74.6153 52.4359 72.0826C53.4121 71.1612 53.903 69.8358 54.1815 68.5225C54.5175 70.7073 56.9317 72.3279 59.081 71.8114C61.5694 71.2134 61.7638 68.8128 62.3866 66.7385C62.646 67.4476 62.909 68.1638 63.3198 68.7973C65.9528 72.8575 71.0855 68.8739 70.919 64.9979C70.999 66.22 72.1023 67.2884 73.3263 67.3286C77.872 67.4784 77.0787 59.6036 76.8885 56.9786C76.7663 55.2931 75.8737 54.1609 74.2539 53.6706C71.9818 52.9829 69.5066 52.6133 67.1318 52.5386" fill="#00C2B0"/>
<path d="M20.4841 37.6175C26.5398 35.1491 43.5825 30.0038 67.745 37.4403C69.397 37.9486 70.5429 39.4519 70.5717 41.18L70.827 56.5357C70.827 56.5357 48.8383 70.3456 17.8467 57.2417L18.0279 41.2452C18.046 39.653 19.0095 38.2186 20.4841 37.6175Z" fill="#EF5EB4"/>
<path d="M18.1934 51.3915C18.6993 52.1467 19.7281 52.4132 20.6218 52.2474C21.5156 52.0818 22.3008 51.5633 23.0266 51.0159C23.3627 50.7622 23.7482 50.4848 24.1632 50.5566C24.7767 50.6627 24.9964 51.4123 25.1147 52.0236C25.402 53.5064 25.8421 54.9847 26.6665 56.2499C27.4911 57.5152 28.7399 58.5558 30.2145 58.8821C32.0096 59.2792 33.9354 58.5539 35.2626 57.2816C36.5897 56.0095 37.3732 54.2555 37.7794 52.4626C37.9454 51.7306 38.0551 50.9809 38.3263 50.2813C38.5977 49.5815 39.0589 48.9186 39.7361 48.5952C40.2578 48.3459 40.9284 48.2712 41.2265 47.7759C41.48 47.3545 41.3241 46.7774 40.975 46.4312C40.6259 46.0849 40.1303 45.9297 39.645 45.8513C37.16 45.4496 34.5496 46.7458 32.1485 45.9903C30.7501 45.5503 29.6416 44.4703 28.2908 43.9015C26.6841 43.2249 24.7646 43.3427 23.2527 44.2107M43.3939 53.8001C43.8889 55.2563 45.1971 56.4052 46.7049 56.7084C48.2126 57.0114 49.8633 56.4572 50.8825 55.3055C51.4925 54.6164 51.917 53.7118 52.7344 53.2893C53.9812 52.6447 55.4773 53.4204 56.5889 54.277C57.7006 55.1337 58.908 56.1538 60.3044 56.0118C61.5974 55.8803 62.6154 54.6948 62.8455 53.4157C63.0756 52.1365 62.646 50.8151 61.9759 49.7016C60.8263 47.7912 58.9407 46.3368 56.8009 45.7099C54.6613 45.0831 52.2889 45.2902 50.2901 46.2782" fill="#D855B0"/>
<path d="M63.1315 53.5558C63.8044 53.8575 64.5798 53.3215 64.9477 52.6824C65.3156 52.0432 65.458 51.2858 65.8795 50.6808C66.301 50.0757 67.2 49.6786 67.7732 50.1425C68.0991 50.4062 68.217 50.8683 68.5503 51.1229C68.9261 51.4099 69.4946 51.3385 69.8655 51.0452C70.2366 50.752 70.4338 50.2851 70.5138 49.8189C70.8073 48.1082 69.6509 46.4065 68.1453 45.5429C66.6397 44.6792 64.8529 44.4822 63.1217 44.3602C61.3902 44.2382 59.6155 44.1646 58.0098 43.5054" fill="#D855B0"/>
<path d="M70.7139 49.7588C68.6776 50.5316 66.6019 51.1962 64.4954 51.7497C59.9439 52.9503 54.7953 53.7154 49.3536 53.9348C43.9111 54.1609 38.7055 53.8543 33.9969 53.3419C29.2857 52.8219 25.0608 52.141 21.557 51.4008C20.3399 51.1455 19.128 50.8661 17.922 50.5626L17.9092 51.6885C19.02 52.0346 20.1394 52.3529 21.2661 52.6432C24.7879 53.555 29.0379 54.3748 33.8012 54.993C38.5645 55.6039 43.8638 55.969 49.4294 55.7378C54.9922 55.5139 60.2786 54.6775 64.9321 53.354C66.9023 52.795 68.8413 52.1309 70.7406 51.3647L70.7139 49.7588Z" fill="#FFB42E"/>
<path d="M21.5571 51.4005C20.5849 51.1964 19.616 50.977 18.6507 50.7422L18.1934 51.3913C18.3524 51.6287 18.5632 51.8176 18.8049 51.9602C19.1769 52.0706 19.5618 52.1806 19.9554 52.2903C20.1784 52.3021 20.4021 52.2877 20.6218 52.2474C21.2133 52.1379 21.7564 51.8723 22.2671 51.5476C22.0303 51.4994 21.7936 51.4503 21.5571 51.4005ZM25.4979 53.6187C28.0285 54.1379 30.8138 54.605 33.8013 54.9928C34.776 55.1177 35.7523 55.2292 36.73 55.3271C37.016 54.7992 37.2514 54.2409 37.4428 53.6677C36.2927 53.5753 35.144 53.4665 33.997 53.3415C30.7905 52.9876 27.8102 52.5591 25.1283 52.0881C25.2294 52.6021 25.3496 53.1151 25.4979 53.6187Z" fill="#FFB42E"/>
<path d="M50.8827 55.3053C51.3116 54.8207 51.6495 54.2301 52.0961 53.775C51.1831 53.844 50.269 53.8973 49.3541 53.9346C47.3543 54.0177 45.3867 54.0283 43.4639 53.9838C43.7428 54.6913 44.2139 55.3171 44.8044 55.7975C46.3215 55.819 47.8647 55.8026 49.4299 55.7378C49.7867 55.7233 50.1421 55.7063 50.4965 55.687C50.6333 55.5682 50.7623 55.4407 50.8827 55.3053ZM62.8457 53.4157C62.9211 52.9961 62.9244 52.5721 62.8728 52.1523C60.4834 52.7117 57.9488 53.1548 55.3078 53.4665C55.7638 53.689 56.2001 53.9773 56.5891 54.277C56.8818 54.5025 57.1813 54.739 57.4888 54.9629C59.2412 54.6934 60.9816 54.3509 62.7054 53.9364C62.7662 53.7669 62.8131 53.5928 62.8457 53.4157Z" fill="#FF902C"/>
<path d="M65.4662 51.4849C65.1434 51.5757 64.8198 51.6638 64.4956 51.7493C63.8311 51.9245 63.1522 52.0894 62.4633 52.2457L63.131 53.5556C63.8039 53.8572 64.5792 53.3213 64.9471 52.6823C65.1637 52.3058 65.3027 51.8883 65.4662 51.4849ZM69.865 51.0453C70.2318 50.7552 70.4285 50.2954 70.5101 49.8345C69.7366 50.1249 68.9573 50.3997 68.1727 50.6587C68.2801 50.8313 68.3902 51.001 68.5498 51.123C68.9256 51.41 69.4939 51.3385 69.865 51.0453ZM21.5571 51.4005C20.5849 51.1964 19.616 50.977 18.6507 50.7422L18.1934 51.3914C18.3524 51.6287 18.5632 51.8176 18.8049 51.9602C19.1769 52.0706 19.5618 52.1806 19.9554 52.2903C20.1784 52.3021 20.4021 52.2877 20.6218 52.2474C21.2133 52.1379 21.7564 51.8723 22.2671 51.5476C22.0303 51.4994 21.7936 51.4503 21.5571 51.4005ZM25.4979 53.6187C28.0285 54.138 30.8138 54.605 33.8013 54.9928C34.776 55.1177 35.7523 55.2292 36.73 55.3271C37.016 54.7992 37.2514 54.241 37.4428 53.6677C36.2927 53.5753 35.144 53.4666 33.997 53.3415C30.7905 52.9876 27.8102 52.5591 25.1283 52.0882C25.2294 52.6022 25.3496 53.1151 25.4979 53.6187Z" fill="#FF902C"/>
<path d="M75.0632 57.7062C75.0415 57.6607 74.2365 58.0013 72.7843 58.6176C71.3327 59.2346 69.2249 60.1107 66.5789 61.0736C65.257 61.5584 63.7931 62.042 62.2135 62.5314C60.6259 62.9928 58.9263 63.4783 57.1099 63.8675C53.4872 64.6775 49.4204 65.2242 45.1415 65.1998C40.8547 65.1474 36.7799 64.7083 33.1276 64.0266C29.4734 63.347 26.2375 62.457 23.571 61.5611C20.903 60.6681 18.7877 59.8126 17.342 59.1857C15.895 58.5612 15.0985 58.2014 15.0746 58.2488C15.0641 58.2696 15.2502 58.3852 15.615 58.5865C15.9824 58.782 16.5168 59.0878 17.2322 59.425C18.6497 60.1279 20.7483 61.0559 23.4151 62.0134C26.0801 62.9735 29.33 63.9194 33.0112 64.6388C36.6903 65.3604 40.8046 65.8232 45.135 65.8762C49.4784 65.9013 53.5966 65.3268 57.2476 64.4754C59.0787 64.0653 60.7873 63.5555 62.3798 63.067C63.964 62.5507 65.4284 62.0376 66.7468 61.5215C69.3858 60.4958 71.4718 59.5496 72.8931 58.8574C73.6077 58.5192 74.1493 58.229 74.5182 58.0363C74.8854 57.8403 75.0734 57.7273 75.0632 57.7062Z" fill="white"/>
<path d="M70.7414 41.1384C70.3489 39.4873 69.6142 38.0156 67.7447 37.4403C43.5824 30.0039 26.5397 35.149 20.484 37.6175C19.0096 38.2185 18.0461 39.6527 18.028 41.2447C18.0113 42.7076 18.08 44.1142 17.6676 45.5013C17.2507 46.9033 16.729 50.2507 18.3481 51.1687C19.9864 52.0973 22.2685 50.0029 23.1111 48.8464C23.5101 48.2987 23.9866 47.6511 24.6639 47.672C25.5054 47.6982 25.9069 48.7023 26.0782 49.5265C26.4395 51.2639 26.7216 53.0581 27.5835 54.6092C28.4453 56.1603 30.0511 57.4472 31.823 57.3496C34.3152 57.2125 35.8749 54.567 36.458 52.1402C36.7049 51.1128 36.8714 50.0389 37.4151 49.1328C37.9588 48.2266 39.0128 47.5189 40.0409 47.7625C40.9829 47.9858 41.5918 48.9134 41.887 49.8354C42.1821 50.7575 42.2645 51.7466 42.6562 52.632C43.2679 54.0147 44.656 55.0218 46.1604 55.1742C47.6647 55.3264 49.2265 54.618 50.103 53.3858C51.2313 51.7995 52.6079 48.1079 55.2961 49.8371C56.1913 50.413 56.7292 51.3882 57.3698 52.2385C58.152 53.2768 59.1733 54.1919 60.4194 54.5623C61.6655 54.9327 63.1558 54.657 63.9913 53.6609C65.0885 52.3522 64.6374 50.025 65.8851 48.7453C67.5909 46.9956 68.537 50.578 69.8184 51.1636C73.5838 52.8839 71.4019 45.158 71.189 43.7663C71.0579 42.9096 70.9462 41.9996 70.7414 41.1384Z" fill="#793D91"/>
<path d="M27.2447 36.7965C26.5106 36.6031 25.7565 37.3172 25.7277 38.0757C25.6989 38.8342 26.2271 39.5262 26.8812 39.9113C27.5352 40.2965 28.3015 40.4334 29.0498 40.5614C31.8605 41.0425 34.6778 41.49 37.5078 41.843C42.7549 42.4978 48.0002 42.5621 53.2508 41.9441C55.9626 41.6251 58.6451 41.0937 61.2736 40.3548L61.4311 40.3102C62.0625 40.1304 62.7115 39.9273 63.2058 39.4953C63.7001 39.0632 63.9993 38.339 63.7471 37.7329C63.2812 36.6146 61.8486 36.7573 60.9003 36.4362C59.4295 35.9382 57.989 35.6283 56.4738 35.2832" fill="#6B3A82"/>
<path d="M67.6604 41.2313C67.6481 41.1863 67.0246 41.3004 65.9098 41.5446L64.9835 41.7518L63.8762 41.9728C63.081 42.1266 62.1819 42.3298 61.1753 42.4903L59.6005 42.7655C59.0528 42.8601 58.4785 42.9313 57.8868 43.0211C56.7045 43.2104 55.4319 43.3428 54.0956 43.5003C51.4177 43.7684 48.4642 43.9675 45.3589 44.0139C42.2534 44.0422 39.2962 43.9141 36.6125 43.7105C35.2729 43.5852 33.9974 43.4836 32.8109 43.3226C32.2171 43.2472 31.6414 43.1897 31.0916 43.1083L29.5106 42.871C28.5006 42.7346 27.5967 42.5534 26.7981 42.4185L25.686 42.2243L24.7549 42.0396C23.6346 41.8221 23.0087 41.7231 22.9972 41.7685C22.986 41.8138 23.5908 41.9993 24.6965 42.2964L25.6179 42.5396C25.9561 42.6226 26.3263 42.7005 26.7233 42.7894C27.5181 42.9601 28.4203 43.1753 29.4308 43.3428L31.0139 43.6246C31.5648 43.72 32.1424 43.7909 32.7383 43.8789C33.9292 44.0649 35.211 44.1885 36.5587 44.3316C39.258 44.571 42.2379 44.719 45.3671 44.6903C48.4962 44.6436 51.4717 44.424 54.1645 44.1197C55.5083 43.9441 56.7868 43.7898 57.9729 43.5754C58.5666 43.473 59.1422 43.3883 59.6909 43.2797L61.2667 42.9599C62.2729 42.7682 63.1696 42.5314 63.9602 42.3415C64.3549 42.2431 64.7229 42.1564 65.0592 42.0654L65.9745 41.8C67.0726 41.4763 67.6727 41.2763 67.6604 41.2313Z" fill="#9D4FC1"/>
<path d="M59.7519 24.0609C59.5125 23.9769 59.2774 23.9022 59.0401 23.8226C49.4555 23.4102 39.7214 21.5285 30.2929 23.9724C30.241 23.9857 30.1914 23.9929 30.1405 24.004C29.7364 24.1756 29.3367 24.3571 28.9416 24.5486C27.9759 25.0188 27.3371 26.122 27.3136 27.3387L27.1016 38.2523C29.4412 39.0866 32.0083 39.5063 34.2965 39.995C38.4774 40.888 42.8303 41.219 47.0972 41.036C51.8454 40.8324 56.9323 40.0985 61.6176 38.3804L61.5668 26.8968C61.5608 25.5769 60.825 24.4369 59.7519 24.0609Z" fill="#FFB42E"/>
<path d="M45.1028 35.5492C49.2302 35.5049 53.1515 35.1433 56.6854 34.6227C58.4204 34.3249 60.0716 34.0612 61.5967 33.6942L61.5909 32.3616C61.5289 32.3732 61.4691 32.3832 61.4067 32.3953C59.8751 32.7107 58.2177 32.9237 56.481 33.1821C52.9954 33.6151 49.1442 33.9262 45.0921 33.9702C41.0398 33.9816 37.1849 33.7228 33.6937 33.3375C31.9537 33.1029 30.2934 32.9123 28.7578 32.6179C28.2306 32.5231 27.7186 32.4398 27.2162 32.3516L27.1914 33.6251C27.624 33.7169 28.064 33.8065 28.5147 33.9042C30.064 34.259 31.7438 34.5022 33.5088 34.7803C37.0496 35.253 40.9753 35.5612 45.1028 35.5492Z" fill="#EF5EB4"/>
<path d="M26.335 31.775C26.3736 32.7958 27.4863 33.629 28.4767 33.3785C29.2176 33.1911 29.8191 32.5193 30.5832 32.5332C31.1208 32.5428 31.5989 32.9076 31.9007 33.3525C32.2025 33.7974 32.3629 34.32 32.5465 34.8252C32.8195 35.5761 33.1669 36.326 33.7515 36.8707C34.336 37.4153 35.2049 37.7161 35.9558 37.4434C37.0741 37.0375 37.4436 35.636 37.4322 34.4464C37.4097 32.1106 36.5222 29.7929 34.9787 28.0395C34.2381 27.1982 33.1426 26.4367 32.0704 26.7626M41.4637 27.7807L48.6718 28.995C49.4811 29.1314 50.3105 29.2747 51.0199 29.6873C51.5304 29.984 52.2748 30.6637 52.2423 31.3252C52.2152 31.8754 51.7236 32.5187 51.613 33.1066C51.4124 34.1723 51.3933 35.2736 51.0871 36.3139C50.7809 37.3541 50.1041 38.3738 49.0686 38.6957C47.936 39.0478 46.6846 38.4538 45.902 37.5628C44.9866 36.5206 44.5666 35.1347 44.0282 33.8738C43.8756 33.5165 43.5884 33.2236 43.2188 33.1036C42.5436 32.8845 42.16 33.3618 41.8392 33.7965L39.8285 36.5211C39.7597 36.6143 39.6719 36.6918 39.5709 36.7486C39.4699 36.8053 39.358 36.8399 39.2426 36.8502C39.1272 36.8604 39.011 36.846 38.9016 36.8079C38.7922 36.7699 38.6921 36.709 38.608 36.6294L37.8834 35.9433" fill="#FF902C"/>
<path d="M47.7334 27.8647C50.3202 29.0275 53.2997 28.7637 56.1111 28.3905C57.1141 28.2573 58.1866 28.1235 59.0943 28.5707C60.0949 29.0637 60.6553 30.1518 60.9857 31.2172C61.3918 32.5261 61.5041 34.1278 60.2031 34.9781C60.0228 35.0952 59.826 35.1851 59.6194 35.2447C58.4508 35.5845 57.3043 35.1243 56.4337 34.3929C55.6247 33.7133 54.8821 32.733 53.7435 32.9417C53.3777 33.0088 53.0466 33.2016 52.7794 33.4602C52.2241 33.9972 51.9688 34.7058 51.7605 35.4233C51.749 35.4633 51.7285 35.5001 51.7007 35.5309C51.6729 35.5618 51.6384 35.5859 51.5999 35.6015C51.5613 35.6172 51.5198 35.6238 51.4783 35.621C51.4368 35.6182 51.3965 35.606 51.3605 35.5854L50.5232 35.1061" fill="#FF902C"/>
<path d="M51.5217 33.6807C49.4554 33.8404 47.3054 33.9461 45.0922 33.97C44.7482 33.9709 44.4079 33.9674 44.0668 33.9645C44.2853 34.4836 44.4868 35.0213 44.7127 35.5464C44.8431 35.5468 44.9721 35.5494 45.1029 35.549C47.2378 35.5262 49.3158 35.417 51.3155 35.2462C51.3962 34.7273 51.4488 34.202 51.5217 33.6807ZM38.1768 35.2757C38.9815 35.34 39.7971 35.3963 40.6275 35.4388L41.75 33.9176C40.7771 33.8858 39.8046 33.8398 38.8329 33.7796L38.1768 35.2757Z" fill="#D855B0"/>
<path d="M50.6612 33.7439L51.4053 35.2379C51.547 35.2256 51.6869 35.2121 51.8277 35.1992C51.9713 34.7346 52.1455 34.2809 52.4209 33.8831C52.4927 33.7796 52.5726 33.6803 52.6598 33.5873C52.0029 33.6453 51.3364 33.6973 50.6612 33.7439ZM61.1121 33.8056C61.2568 33.3758 61.2847 32.9032 61.2388 32.428C59.7538 32.7251 58.1547 32.9329 56.4806 33.1821C56.0624 33.234 55.6383 33.2841 55.2099 33.3322C55.6398 33.6363 56.0283 34.0521 56.4335 34.3924C56.5267 34.4708 56.624 34.5446 56.7234 34.616C58.2625 34.3521 59.735 34.1136 61.1121 33.8056ZM28.7574 32.6179C28.2303 32.5231 27.7182 32.4398 27.2158 32.3516L27.2002 33.1552C27.5815 33.3881 28.0406 33.4882 28.4764 33.3779C28.9121 33.2677 29.2997 32.9905 29.7005 32.7833C29.3854 32.7325 29.071 32.6773 28.7574 32.6179ZM37.3844 35.2099C37.4189 34.9533 37.4344 34.6949 37.4321 34.4456C37.429 34.1901 37.4156 33.9349 37.392 33.6805C36.1572 33.5872 34.9241 33.4728 33.6932 33.3373C33.0061 33.2447 32.332 33.1588 31.6726 33.0707C31.7559 33.1582 31.8321 33.2521 31.9004 33.3518C32.1613 33.7364 32.3165 34.179 32.4724 34.6184C32.8145 34.6719 33.1592 34.7255 33.5085 34.7805C34.7972 34.9519 36.0895 35.0951 37.3844 35.2099Z" fill="#D855B0"/>
<path d="M62.2877 26.6826C62.0265 25.9702 61.6928 25.3702 61.3001 24.9916C59.1832 22.933 54.8377 22.787 52.0357 22.4814C48.6548 22.1127 45.2466 22.0597 41.8489 22.1315C37.4048 22.2253 33.2263 22.3315 29.1903 24.3453C27.9381 24.9702 27.2184 26.1386 26.7929 27.43C26.4355 28.5139 25.7941 30.5067 26.065 31.6374C26.8391 34.868 30.6822 29.4376 31.7091 29.5355C32.5388 29.6146 32.8457 30.6509 32.9394 31.479C33.093 32.8364 33.2259 34.233 33.8384 35.4539C34.4508 36.6751 35.6721 37.6988 37.037 37.6422C38.3656 37.587 39.4598 36.5492 40.1419 35.4079C40.8239 34.2663 41.2278 32.9721 41.9501 31.8555C42.2584 31.3788 42.7269 30.8922 43.291 30.9578C44.0071 31.0411 44.2998 31.8989 44.4842 32.5961C44.8626 34.0271 45.4826 35.4654 46.6343 36.3954C47.7859 37.3255 49.5745 37.5876 50.7358 36.6698C51.7566 35.8631 52.0213 34.4601 52.4488 33.2312C52.9233 31.8675 54.1339 30.2561 55.7641 30.9256C57.0745 31.4639 57.5324 33.1173 58.6307 33.9287C59.9631 34.9129 61.7122 34.4358 62.4852 32.9424C63.1866 31.5871 63.0233 28.6888 62.2877 26.6826Z" fill="#793D91"/>
<path d="M60.8672 25.808C60.8302 25.6987 59.1689 26.2424 56.4234 26.8302L55.3446 27.0522C54.9695 27.1283 54.5744 27.1826 54.1683 27.2536C53.3574 27.4048 52.4815 27.502 51.5629 27.6214C49.7203 27.8168 47.6858 27.9448 45.5476 27.9314C43.4098 27.9012 41.3783 27.7318 39.5401 27.4987C38.6241 27.3605 37.7503 27.2455 36.9428 27.0779C36.5383 26.9986 36.1444 26.9362 35.7709 26.8523L34.6968 26.6083C31.9638 25.9646 30.3141 25.387 30.2749 25.4956C30.2587 25.5394 30.6563 25.7229 31.392 26.0181C31.8368 26.2023 32.2896 26.3667 32.749 26.511C33.2848 26.6834 33.8905 26.8986 34.5785 27.0719L35.6541 27.3612C36.0289 27.4595 36.4248 27.5356 36.8319 27.6279C37.6447 27.8214 38.5264 27.9592 39.4524 28.116C41.3108 28.3865 43.3715 28.5778 45.5408 28.6082C47.7103 28.6221 49.7747 28.473 51.6379 28.2405C52.5671 28.1027 53.4513 27.9829 54.268 27.8059C54.6768 27.7221 55.0743 27.6541 55.4508 27.5635L56.5322 27.2962C57.2236 27.1369 57.8335 26.9342 58.3728 26.7727C58.835 26.6378 59.291 26.4826 59.7395 26.3076C60.4811 26.0276 60.8824 25.8523 60.8672 25.808Z" fill="#9D4FC1"/>
<path d="M39.3278 11.1703C37.9697 10.3141 37.2121 8.39471 37.5663 6.70721C37.8425 5.39113 38.7149 4.17367 38.4797 2.83984C39.0005 3.53717 39.6298 4.12076 40.1953 4.77273C40.7608 5.42471 41.2751 6.17353 41.4832 7.0498C41.8448 8.57242 41.1009 10.3121 39.8233 10.9312" fill="#FFB42E"/>
<path d="M40.0393 11.3894C38.848 11.6151 37.4221 12.0918 36.4727 13.0542C36.5635 14.1261 36.6606 15.1975 36.7637 16.268C36.779 16.4257 37.1542 16.5835 37.1696 16.7412C37.1812 16.8588 36.8328 16.9764 36.8446 17.094C36.9241 17.8933 37.007 18.6922 37.0933 19.4908C37.107 19.617 37.8406 19.743 37.8543 19.8692C37.8708 20.0204 37.1677 20.1716 37.1844 20.3226C37.3578 21.8835 37.5445 23.443 37.7444 25.0008C39.253 25.8809 41.1859 25.5594 42.6566 24.4981C42.674 23.6065 42.6958 22.7137 42.7185 21.8199C42.7224 21.6664 42.3664 21.5129 42.3703 21.3593C42.3747 21.1862 42.7391 21.013 42.7435 20.8399C42.764 20.0336 42.7843 19.2269 42.8015 18.4203C42.8048 18.2608 42.4483 18.1014 42.4515 17.942C42.4548 17.7764 42.8178 17.6106 42.8208 17.445C42.8354 16.6373 42.846 15.8296 42.85 15.0228C42.8507 14.8892 42.3112 14.7556 42.3116 14.622C42.3119 14.4381 42.8519 14.2542 42.8516 14.0704C42.8505 13.168 42.8382 12.2657 42.8147 11.3637C41.9041 11.206 40.97 11.213 40.0393 11.3894Z" fill="#00C2B0"/>
<path d="M40.0393 11.3893C38.848 11.615 37.4221 12.0917 36.4727 13.0542C36.4771 13.1069 36.482 13.1596 36.4865 13.2124C37.3118 13.5934 38.2646 13.6235 39.135 13.4903C40.5313 13.2765 41.6624 12.7019 42.6883 11.6249C42.7328 11.5781 42.7756 11.5277 42.8168 11.4753C42.8159 11.4382 42.8157 11.4009 42.8147 11.3638C41.9041 11.206 40.97 11.213 40.0393 11.3893Z" fill="#199182"/>
<path d="M39.5118 12.6364C39.5493 12.6336 39.55 12.2795 39.5983 11.7111C39.638 11.1421 39.7528 10.357 39.7623 9.46774C39.772 8.57635 39.58 7.76371 39.2986 7.24235C39.0202 6.71448 38.7022 6.50055 38.6883 6.52252C38.6559 6.55293 38.9156 6.80395 39.1358 7.32004C39.3607 7.83192 39.516 8.6043 39.5073 9.46703C39.4986 10.3312 39.4123 11.1243 39.4181 11.7037C39.4155 12.2831 39.4791 12.6394 39.5118 12.6364Z" fill="#793D91"/>
<path d="M42.8488 15.0314C42.8504 14.711 42.8527 14.3909 42.852 14.0708C41.989 14.5748 41.014 15.0545 39.9531 15.441C38.8478 15.8451 37.764 16.106 36.7646 16.2682C36.7912 16.5437 36.8184 16.8188 36.8459 17.0941L36.8699 17.0916C37.9158 16.9712 39.0556 16.7156 40.2105 16.298C41.1277 15.9594 42.011 15.5354 42.8488 15.0314ZM37.0939 19.4908C37.1238 19.7679 37.1547 20.0456 37.1856 20.3226C38.1971 20.1968 39.2915 19.9465 40.4009 19.5453C41.2638 19.2273 42.0708 18.8422 42.8013 18.4205C42.8084 18.0955 42.8143 17.7705 42.8201 17.4453C42.0129 17.9025 41.1149 18.3344 40.1435 18.6884C39.0892 19.0737 38.0544 19.3274 37.0939 19.4908ZM37.4616 22.7082C37.495 22.9873 37.5281 23.2666 37.5623 23.5458C38.5212 23.413 39.5496 23.1692 40.5909 22.7927C41.3237 22.5222 42.0352 22.197 42.7194 21.8199C42.7277 21.4933 42.7356 21.1667 42.744 20.84C42.0068 21.2421 41.2 21.6201 40.3337 21.9358C39.3437 22.2975 38.3716 22.544 37.4616 22.7082Z" fill="#EF5EB4"/>
<path d="M53.3469 11.5497C54.806 10.88 55.8101 9.07732 55.6816 7.35783C55.5814 6.01697 54.877 4.6951 55.2861 3.40381C54.6779 4.02625 53.977 4.52195 53.3307 5.09359C52.6842 5.66523 52.0756 6.33971 51.7538 7.181C51.1944 8.64262 51.7026 10.4651 52.8874 11.2473" fill="#FFB42E"/>
<path d="M52.6121 11.6731C53.7631 12.0539 55.1139 12.7145 55.928 13.7938C55.6925 14.8626 55.4508 15.9301 55.2029 16.9961C55.1698 17.1383 54.5968 17.2805 54.5634 17.4226C54.5339 17.549 55.044 17.6754 55.0143 17.8017C54.8312 18.5783 54.6448 19.3541 54.4551 20.1291C54.4184 20.2788 53.8418 20.4286 53.8049 20.5782C53.7752 20.699 54.2851 20.8197 54.2553 20.9405C53.8802 22.453 53.4925 23.9623 53.0921 25.4683C51.4807 26.1417 49.6069 25.5683 48.2891 24.3222C48.3903 23.4274 48.4873 22.5304 48.5837 21.6327C48.6004 21.4768 48.9771 21.3209 48.9938 21.165C49.0117 20.9971 48.6698 20.8292 48.6877 20.6613C48.7744 19.8535 48.8614 19.0454 48.9514 18.2375C48.9676 18.0921 49.3438 17.9468 49.3603 17.8014C49.3807 17.6207 49.0414 17.44 49.0622 17.2593C49.1534 16.4655 49.2485 15.6725 49.3499 14.881C49.3675 14.7437 49.9252 14.6064 49.9432 14.4691C49.9672 14.2856 49.4517 14.1022 49.4765 13.9191C49.595 13.0384 49.7243 12.1593 49.8644 11.2818C50.7878 11.2455 51.7128 11.3757 52.6121 11.6731Z" fill="#EF5EB4"/>
<path d="M52.6123 11.6731C53.7634 12.0539 55.1142 12.7145 55.9283 13.7938L55.8937 13.9486C55.0253 14.2176 54.0769 14.1218 53.2316 13.875C51.8758 13.4789 50.8303 12.7602 49.9554 11.5573C49.917 11.5039 49.881 11.4487 49.8477 11.3921C49.8535 11.3553 49.8586 11.3186 49.8644 11.2818C50.7881 11.2455 51.713 11.3757 52.6123 11.6731Z" fill="#CC469C"/>
<path d="M52.9717 12.9785C53.0037 12.9859 53.1137 12.641 53.1875 12.0662C53.2696 11.4926 53.2888 10.6951 53.3941 9.83728C53.4992 8.98105 53.755 8.23591 54.0453 7.75814C54.3319 7.27562 54.6223 7.06099 54.5941 7.02654C54.5832 7.00298 54.2399 7.17314 53.8942 7.6597C53.5465 8.13958 53.2491 8.9197 53.1411 9.80458C53.0332 10.6875 53.0436 11.4808 53.0079 12.05C52.981 12.6197 52.9349 12.9708 52.9717 12.9785Z" fill="#793D91"/>
<path d="M49.3497 14.8808C49.3943 14.5635 49.4305 14.2357 49.4773 13.9189C50.2583 14.5424 51.1741 15.1804 52.168 15.7163C53.2033 16.276 54.2381 16.6908 55.2034 16.9958C55.1373 17.2644 55.081 17.5328 55.014 17.8012C55.0061 17.7991 54.988 17.7974 54.9801 17.7953C53.9627 17.5251 52.8718 17.1073 51.7893 16.5272C50.8923 16.0392 50.0646 15.4671 49.3497 14.8808ZM54.4549 20.1286C54.3853 20.3984 54.3255 20.6704 54.255 20.94C53.2724 20.6691 52.2091 20.258 51.1695 19.7006C50.3901 19.2763 49.648 18.7867 48.9513 18.237C48.9914 17.9143 49.0208 17.5813 49.0619 17.2588C49.7944 17.828 50.638 18.3991 51.548 18.8897C52.5353 19.4237 53.5282 19.828 54.4549 20.1286ZM53.667 23.268C53.5936 23.5395 53.5289 23.8181 53.4545 24.0893C52.5248 23.8193 51.4877 23.4097 50.5118 22.8866C49.8025 22.5008 49.1804 22.0856 48.582 21.6322C48.6211 21.3079 48.6485 20.9855 48.6875 20.661C49.385 21.1875 50.1213 21.6604 50.8902 22.0757C51.8173 22.5769 52.7902 22.974 53.667 23.268Z" fill="#FFB42E"/>
<path d="M61.4154 32.5614C61.5937 32.609 61.8317 32.393 62.0359 31.9743C62.2402 31.5579 62.3989 30.9361 62.4119 30.2388C62.4239 29.5413 62.2877 28.9145 62.0985 28.4908C61.9095 28.0649 61.6793 27.8406 61.4994 27.8818C61.1315 27.9772 61.0869 29.0087 61.0586 30.2144C61.0438 31.4204 61.0512 32.4528 61.4154 32.5614ZM36.4125 36.0197C36.5415 35.8793 36.4882 35.6093 36.3822 35.2749L35.9683 34.0689L35.6062 32.8464C35.4986 32.5125 35.3854 32.2615 35.1989 32.222C35.0213 32.1833 34.7932 32.3874 34.6501 32.8056C34.5061 33.2185 34.4762 33.8443 34.6791 34.4808C34.883 35.1169 35.2702 35.6095 35.6269 35.8624C35.986 36.1203 36.2901 36.1542 36.4125 36.0197ZM45.8103 53.9563C45.8692 53.7712 45.6051 53.53 45.3186 53.1428C45.0263 52.7608 44.6948 52.1986 44.4717 51.5064C44.2465 50.8021 44.1312 50.0803 43.9913 49.5375C43.8547 48.9943 43.6903 48.6417 43.5019 48.6438C43.3166 48.6457 43.1424 48.9875 43.0347 49.5661C42.9333 50.1395 42.8893 50.9879 43.1836 51.9218C43.4831 52.8671 44.128 53.5891 44.7225 53.8914C45.3221 54.205 45.7642 54.1252 45.8103 53.9563ZM31.0002 55.5371C31.0758 55.3583 30.7961 55.0786 30.4565 54.6362C30.1109 54.1976 29.7036 53.5646 29.3754 52.7835C29.0457 51.9963 28.8182 51.2058 28.593 50.6257C28.3712 50.0448 28.1516 49.6839 27.9655 49.7127C27.7823 49.7412 27.6656 50.1424 27.6498 50.7875C27.6389 51.428 27.7261 52.3419 28.1284 53.3094C28.5333 54.2827 29.2244 55.0296 29.8448 55.372C30.4679 55.7252 30.9364 55.7016 31.0002 55.5371ZM27.9418 48.9462C28.2974 48.8245 28.4487 48.326 28.3831 47.8111C28.3127 47.2968 28.0372 46.8549 27.6623 46.8296C27.2919 46.8029 26.9535 47.326 27.0414 47.9883C27.1286 48.6507 27.5911 49.0681 27.9418 48.9462ZM70.6772 48.8391C71.046 48.8212 71.278 47.5076 70.9593 45.9412C70.6452 44.3739 69.9217 43.2531 69.5748 43.3797C69.2189 43.507 69.3414 44.749 69.6327 46.2089C69.9308 47.6677 70.2996 48.86 70.6772 48.8391Z" fill="white"/>
</g>
<defs>
<clipPath id="clip0_40016694_3557">
<rect width="90" height="90" fill="white"/>
</clipPath>
</defs>
</svg>
