<svg width="90" height="90" viewBox="0 0 90 90" fill="none" xmlns="http://www.w3.org/2000/svg">
<g clip-path="url(#clip0_40016694_3545)">
<path d="M89.6476 47.646C89.2102 45.1692 88.4434 43.0326 87.304 41.1102C87.1636 40.8726 87.0196 40.6404 86.8702 40.41C87.0826 40.0464 87.2734 39.672 87.439 39.2886C87.9232 38.1726 88.2778 36.9684 88.5532 35.5014C88.7602 34.407 88.9744 33.1164 88.9258 31.6404C88.816 28.35 87.2482 25.5186 84.5122 23.67C84.3484 23.5584 84.181 23.454 84.01 23.3532C83.8894 22.4388 83.7004 21.5532 83.4412 20.7036C83.2108 19.9494 82.9246 19.2366 82.5808 18.5652C83.327 18.0595 83.938 17.3787 84.3604 16.5823C84.7828 15.7859 85.0036 14.8982 85.0036 13.9968C85.0036 11.8692 83.785 9.96475 81.9256 9.05035C81.121 6.94075 79.0888 5.50615 76.7812 5.50255H76.774C76.1404 5.50255 75.5284 5.61055 74.956 5.81035C74.6981 5.56603 74.4172 5.34722 74.1172 5.15695C73.6477 4.27292 72.9466 3.53331 72.0888 3.01739C71.2311 2.50148 70.2491 2.22872 69.2482 2.22835C69.1474 2.22835 69.0466 2.23195 68.944 2.23735C68.1658 2.27999 67.4055 2.48717 66.7133 2.84523C66.0211 3.20329 65.4126 3.70408 64.9282 4.31455C64.6482 3.85675 64.3025 3.44254 63.9022 3.08515C62.8916 2.18067 61.5828 1.68076 60.2266 1.68115C60.0214 1.68115 59.8162 1.69195 59.611 1.71535L22.261 5.91655C19.5772 6.21895 17.5252 8.41315 17.3722 11.0772C16.9312 10.962 16.4686 10.9026 15.9934 10.9008H15.988C13.441 10.9008 11.2522 12.6396 10.642 15.0642C9.41728 15.4755 8.37577 16.3037 7.69898 17.4042C6.90988 17.5564 6.16356 17.8791 5.5122 18.3498C4.86083 18.8206 4.32016 19.4279 3.92798 20.1294C2.35298 21.1698 1.38458 22.977 1.45838 24.9354C1.52138 26.6418 2.36378 28.1736 3.66878 29.1492C3.35561 29.7371 3.08725 30.3478 2.86598 30.9762C2.07038 33.2334 1.69058 35.361 1.70498 37.476C1.71578 38.9484 2.01278 40.3632 2.58518 41.6844C3.09278 42.8508 3.80198 43.83 4.70018 44.6076C4.01513 45.3062 3.39908 46.0694 2.86058 46.8864C1.78058 48.5244 0.999382 50.3982 0.540382 52.4556C-0.0284182 55.0062 -0.145418 57.7224 0.183982 60.759C0.372982 62.4996 0.687982 64.278 1.14518 66.1986C2.58878 72.2538 5.65238 77.5764 10.2532 82.017C11.5006 83.2212 12.8434 84.2634 14.242 85.1112C15.738 86.0198 17.344 86.7336 19.021 87.2352C20.8984 87.7968 22.495 88.1172 24.0466 88.2468C24.6064 88.2936 25.1644 88.317 25.7026 88.317C26.833 88.317 27.9436 88.2126 29.002 88.0056C30.3178 87.75 31.486 87.3468 32.4778 86.9886C34.2148 86.3622 35.896 85.563 37.489 84.6054C38.0216 85.4744 38.7847 86.1788 39.6934 86.6405C40.6021 87.1022 41.621 87.303 42.637 87.2208C44.4064 87.0768 45.9616 86.0976 46.8688 84.6432C47.74 85.2138 48.775 85.5432 49.8766 85.545H49.8928C52.204 85.545 54.2416 84.1086 55.0462 81.9954C55.7154 81.6647 56.3107 81.2019 56.7961 80.6348C57.2815 80.0678 57.647 79.4082 57.8704 78.696C58.1026 78.7608 58.333 78.822 58.5634 78.8778C60.052 79.2414 61.5622 79.443 63.0508 79.4772C63.328 79.4844 63.6016 79.4862 63.8662 79.4862C64.8652 79.4862 65.7868 79.4412 66.685 79.3493C68.278 79.1856 69.5902 78.939 70.816 78.5754C73.552 77.7636 76.1332 76.3668 78.4858 74.421C80.7016 72.5904 82.7374 70.3962 84.5374 67.9032C85.8586 66.0726 86.8234 64.431 87.5758 62.7336C88.8718 59.8122 89.662 56.7144 89.9248 53.5266C90.085 51.57 89.9914 49.59 89.6476 47.646Z" fill="white"/>
<path d="M47.4857 13.6188C43.2719 14.0724 39.0977 14.5872 34.9037 15.0624C34.8947 15.129 34.8803 15.1794 34.8803 15.2298C34.8695 17.6256 34.8551 20.0232 34.8551 22.419C34.8533 24.3648 34.8893 26.3124 34.8713 28.2582C34.8587 29.5632 34.7831 30.87 34.7273 32.175C34.6769 33.354 34.6229 34.533 34.5563 35.7102C34.2971 40.248 33.3449 44.6238 31.4297 48.7638C30.6467 50.4576 29.7161 52.074 28.7567 53.6724C28.5443 54.027 28.3319 54.3834 28.1141 54.7362C28.0223 54.8838 27.9629 55.0332 27.9341 55.2078C27.8495 55.719 27.4445 56.0844 26.9423 56.124C26.4239 56.1654 25.9577 55.8648 25.7813 55.377C25.6787 55.0944 25.6787 54.8082 25.7921 54.531C25.8844 54.3066 25.9933 54.0894 26.1179 53.8812C26.9873 52.4394 27.8549 50.9958 28.6505 49.5108C30.1949 46.62 31.2497 43.56 31.8455 40.3416C32.0993 38.9682 32.2703 37.5822 32.3531 36.1872C32.4557 34.452 32.5331 32.715 32.6213 30.978C32.7905 27.7002 32.7257 24.4206 32.6879 21.141C32.6681 19.4112 32.7059 17.6814 32.7167 15.9516C32.7185 15.7554 32.7167 15.5592 32.7167 15.3216C29.4641 15.687 26.2313 16.0506 22.9841 16.416C22.9715 16.3512 22.9553 16.3026 22.9535 16.2522C22.9463 15.7392 22.9427 15.2244 22.9337 14.7114C22.9175 13.7124 22.8977 12.7116 22.8797 11.7126C22.8779 11.6154 22.8797 11.5164 22.8797 11.3958C35.3321 9.99544 47.7665 8.59864 60.2315 7.19824V12.222C56.7125 12.6126 53.1845 13.0032 49.6529 13.3956C49.6475 13.4856 49.6385 13.5468 49.6385 13.6098C49.6439 14.6826 49.6331 15.7554 49.6583 16.8264C49.6979 18.4032 49.7321 19.98 49.8275 21.5532C49.9211 23.1084 50.0579 24.6618 50.2325 26.208C50.3927 27.621 50.5871 29.0322 50.8391 30.4308C51.3377 33.1938 52.2053 35.838 53.5265 38.3238C54.3095 39.798 55.2959 41.1264 56.4191 42.3522C57.4595 43.4862 58.5413 44.5842 59.6069 45.6966C59.6753 45.7686 59.7563 45.8262 59.8319 45.891C60.2351 46.2456 60.3269 46.7874 60.0641 47.2374C59.8049 47.6784 59.2667 47.8854 58.7771 47.7036C58.5953 47.637 58.4099 47.5344 58.2749 47.3994C56.4047 45.5364 54.5291 43.6752 52.9829 41.5224C51.6383 39.6486 50.6717 37.5822 49.9211 35.4096C49.2227 33.3864 48.7475 31.311 48.4397 29.1942C48.1805 27.4104 47.9573 25.6248 47.8187 23.8284C47.7197 22.545 47.6549 21.2562 47.6045 19.9692C47.5451 18.4122 47.5127 16.8534 47.4767 15.2946C47.4659 14.8266 47.4821 14.3568 47.4857 13.8888V13.6188Z" fill="#75544D"/>
<path d="M28.6671 52.7401C28.7787 52.6519 28.8687 52.5817 28.9587 52.5079C30.3861 51.3361 31.9989 50.5657 33.8169 50.2201C36.5817 49.6963 39.1827 50.1175 41.6343 51.5125C44.1903 52.9687 45.6987 55.1647 46.2909 58.0177C46.6401 59.7043 46.6203 61.3981 46.3629 63.0973C46.0659 65.0557 45.4323 66.9007 44.5845 68.6863C43.3371 71.3125 41.7693 73.7191 39.7425 75.8035C37.1451 78.4747 34.1319 80.5303 30.6075 81.8011C29.7345 82.1161 28.8597 82.4149 27.9471 82.5931C26.8077 82.8145 25.6593 82.8469 24.5055 82.7515C23.1717 82.6399 21.8793 82.3339 20.5995 81.9505C18.0939 81.2017 15.9555 79.8535 14.0835 78.0481C10.3017 74.3977 7.73132 70.0471 6.50912 64.9189C6.13472 63.3493 5.83952 61.7653 5.66672 60.1615C5.42912 57.9817 5.44172 55.8055 5.92232 53.6563C6.53793 50.8969 7.94552 48.6523 10.3341 47.0737C11.4771 46.3177 12.7281 45.8299 14.0745 45.5923C16.9599 45.0829 19.7823 45.3385 22.5147 46.3969C24.0987 47.0089 25.4829 47.9395 26.6169 49.2193C27.1461 49.8169 27.5673 50.4865 27.9219 51.1993C28.1667 51.6979 28.4061 52.2019 28.6671 52.7401ZM58.4877 46.2313C58.6191 45.7489 58.7523 45.2809 58.8747 44.8111C59.3427 43.0039 60.2247 41.4271 61.4829 40.0501C62.3433 39.1087 63.2811 38.2609 64.3557 37.5643C65.6049 36.7561 66.9693 36.3403 68.4489 36.2701C71.7303 36.1153 74.7471 36.9811 77.5065 38.7127C79.6053 40.0285 81.2919 41.7781 82.5609 43.9201C83.4213 45.3727 83.9253 46.9513 84.2169 48.6055C84.4785 50.0801 84.5493 51.5823 84.4275 53.0749C84.2151 55.6543 83.5851 58.1293 82.5339 60.4981C81.8733 61.9885 81.0165 63.3583 80.0643 64.6759C78.5901 66.7171 76.9125 68.5675 74.9721 70.1713C73.2675 71.5807 71.3775 72.6571 69.2481 73.2889C68.2275 73.5913 67.1781 73.7551 66.1197 73.8631C65.1423 73.9639 64.1613 73.9855 63.1785 73.9639C60.9123 73.9117 58.7739 73.3429 56.7057 72.4339C53.5773 71.0587 51.3543 68.7529 49.7487 65.7901C48.9333 64.2871 48.4167 62.6833 48.1287 61.0021C47.9865 60.1777 47.8551 59.3497 47.7363 58.5217C47.4501 56.5525 47.7759 54.6769 48.5499 52.8481C49.7127 50.1013 52.2795 47.7487 54.7005 46.8541C55.8273 46.4365 56.9883 46.2223 58.1889 46.2295C58.2789 46.2313 58.3689 46.2313 58.4877 46.2313Z" fill="#FF7772"/>
<path d="M25.5114 48.17C25.4358 47.6714 25.353 47.2034 25.2936 46.73C25.1694 45.7274 25.1154 44.723 25.1928 43.7132C25.2486 42.968 25.3026 42.2246 25.3602 41.4794C25.4304 40.583 25.515 39.6866 25.569 38.7902C25.6122 38.072 25.6302 37.352 25.6446 36.632C25.6572 36.011 25.6464 35.3882 25.6518 34.7672C25.6536 34.6142 25.668 34.4612 25.695 34.3118C25.7256 34.1408 25.83 34.0166 25.9992 33.9644C26.172 33.9122 26.3196 33.9752 26.4402 34.0976C26.5032 34.1624 26.559 34.2344 26.604 34.3118C27.3582 35.5808 28.1394 36.8354 28.8522 38.1278C29.4642 39.2366 30.0438 40.3688 30.474 41.5694C30.915 42.8042 31.2462 44.0642 31.3488 45.3728C31.4154 46.226 31.4028 47.0828 31.302 47.936C31.176 49.007 30.9096 50.0402 30.4992 51.0356C30.3444 51.4118 30.1554 51.7682 29.8944 52.085C29.6118 52.4288 29.2374 52.6448 28.8126 52.6898C28.485 52.724 28.134 52.7312 27.8064 52.5962C27.72 52.5602 27.6156 52.5512 27.5202 52.5584C27.027 52.5998 26.5374 52.67 26.0442 52.6898C25.4826 52.7114 24.9336 52.6142 24.4026 52.4216C22.8096 51.8456 21.582 50.852 20.8458 49.3004C20.2122 47.9648 19.62 46.6112 19.2996 45.1622C19.1484 44.4782 19.0602 43.7798 18.9396 43.0886C18.8982 42.8492 18.8424 42.6134 18.801 42.374C18.7776 42.2426 18.7506 42.1058 18.7596 41.9726C18.7848 41.6414 19.1268 41.4776 19.3896 41.6792C19.5192 41.78 19.62 41.9294 19.7064 42.0734C19.9602 42.4982 20.1978 42.9338 20.4498 43.3586C20.583 43.5818 20.7378 43.7942 20.8818 44.012C21.3786 44.7644 21.996 45.4016 22.7088 45.947C23.3586 46.4456 24.0066 46.9478 24.651 47.4536C24.9372 47.6768 25.2054 47.9144 25.5114 48.17ZM60.291 42.383C60.3216 42.3524 60.3558 42.3236 60.3846 42.293C61.2684 41.3678 62.1522 40.4444 63.0324 39.5174C63.2988 39.2366 63.5544 38.945 63.81 38.6534C64.4166 37.9622 64.8756 37.1828 65.205 36.326C65.367 35.9066 65.5218 35.4836 65.6838 35.0642C65.7252 34.9562 65.7684 34.8428 65.8368 34.751C66.0348 34.4792 66.402 34.5044 66.5352 34.8122C66.6126 34.9886 66.6486 35.1956 66.6486 35.3882C66.6522 35.9822 66.6324 36.5762 66.6162 37.1702C66.5964 37.8722 66.5784 38.5742 66.5478 39.2762C66.51 40.1474 66.3156 40.9862 65.9736 41.789C65.4678 42.9752 64.7946 44.0552 63.9162 45.0038C63.3672 45.596 62.7444 46.0982 62.037 46.487C61.1442 46.9766 60.1866 47.1602 59.1714 47.0576C58.932 47.0342 58.6872 47.0558 58.446 47.0396C58.2156 47.0234 57.9834 46.9946 57.7566 46.955C57.6342 46.9334 57.5586 46.8416 57.5118 46.7246C57.483 46.6526 57.4452 46.5752 57.3894 46.523C56.5902 45.7778 56.0898 44.858 55.7856 43.8158C55.4562 42.6872 55.3374 41.537 55.4364 40.3688C55.5174 39.3986 55.7424 38.4518 55.9872 37.5104C56.3274 36.2018 56.7882 34.9328 57.231 33.6584C57.7566 32.1518 58.1652 30.6146 58.554 29.0684C58.6026 28.8776 58.6602 28.6868 58.7322 28.5032C58.8132 28.2926 58.9428 28.1198 59.1948 28.109C59.436 28.0982 59.589 28.244 59.679 28.4384C59.841 28.7894 60.0102 29.1404 60.12 29.5094C60.561 30.9746 60.9336 32.4578 61.2018 33.9662C61.3494 34.7906 61.4682 35.6168 61.488 36.4574C61.515 37.5464 61.3944 38.612 61.1262 39.665C60.894 40.5758 60.6294 41.4812 60.291 42.383Z" fill="#8CB57C"/>
<path d="M59.2005 35.7011C59.4921 35.4239 59.7369 35.1881 59.9871 34.9559C60.0663 34.8839 60.1527 34.8173 60.2445 34.7615C60.3417 34.7003 60.4497 34.686 60.5433 34.7742C60.6243 34.8516 60.6243 34.9685 60.5379 35.0945C60.4983 35.1521 60.4407 35.2007 60.3903 35.2511C59.9475 35.6993 59.5029 36.1458 59.0655 36.5993C58.9989 36.6678 58.9413 36.7578 58.9179 36.8496C58.7253 37.5984 58.5417 38.3508 58.3563 39.1032C58.3473 39.1374 58.3527 39.1733 58.3473 39.2561C58.5615 39.0815 58.7433 38.9268 58.9323 38.7828C59.0313 38.7072 59.1375 38.6333 59.2527 38.5901C59.3157 38.5649 59.4381 38.5757 59.4687 38.6189C59.5119 38.6765 59.5281 38.7971 59.4957 38.8601C59.4399 38.9681 59.3481 39.0617 59.2545 39.1445C58.9521 39.4145 58.6443 39.6791 58.3365 39.9419C58.2357 40.0283 58.1871 40.1292 58.1655 40.2641C58.0449 41.0381 57.9243 41.8122 57.9027 42.5988C57.9009 42.6708 57.9027 42.741 57.9027 42.8634C57.9981 42.7842 58.0647 42.7319 58.1277 42.6761C58.3113 42.5159 58.4859 42.3467 58.6767 42.1973C58.8261 42.0785 59.0007 42.0641 59.0745 42.1361C59.1555 42.2153 59.1267 42.4098 58.9845 42.5484C58.7199 42.8058 58.4535 43.0649 58.1673 43.2954C57.9495 43.47 57.8577 43.6571 57.8937 43.9415C57.9495 44.3771 57.9675 44.8164 58.0017 45.243C58.5345 45.36 59.7513 45.1385 60.2823 44.8308C60.1311 44.6166 60.2571 44.433 60.3561 44.2403C60.5685 43.8246 60.7737 43.4033 60.9843 42.9858C61.0167 42.9227 61.0473 42.8544 61.0959 42.804C61.1697 42.7266 61.2633 42.6995 61.3659 42.7553C61.4667 42.8093 61.5027 42.8976 61.4829 43.0038C61.4739 43.056 61.4505 43.1063 61.4271 43.155C61.2507 43.5294 61.0743 43.9037 60.8961 44.2764C60.8601 44.3537 60.8205 44.4293 60.7737 44.5265C61.1787 44.4239 62.4909 43.3439 63.0381 42.6959C63.0597 42.4547 63.0561 42.2585 63.0993 42.0713C63.2343 41.4845 63.3891 40.9013 63.5349 40.3163C63.5799 40.1399 63.6771 40.0535 63.8049 40.0715C63.9327 40.0913 64.0227 40.2084 64.0011 40.3793C63.9709 40.6022 63.9289 40.8233 63.8751 41.0417C63.8031 41.3477 63.7167 41.6501 63.6213 42.0101C63.7023 41.9363 63.7509 41.9057 63.7797 41.8607C64.0353 41.4809 64.3107 41.1101 64.5375 40.7123C64.8633 40.1417 65.1549 39.5513 65.4645 38.9717C65.5149 38.8781 65.5707 38.7773 65.6535 38.7143C65.7129 38.6693 65.8353 38.6495 65.8965 38.6819C65.9577 38.7143 65.9991 38.8242 66.0045 38.9034C66.0099 38.9772 65.9667 39.0599 65.9307 39.1301C65.6103 39.7439 65.3043 40.3686 64.9551 40.968C64.6887 41.4252 64.3665 41.8499 64.0677 42.2892C64.0191 42.3611 63.9615 42.4277 63.8859 42.525C64.0083 42.5519 64.1001 42.5736 64.1919 42.5898C64.2531 42.6005 64.3179 42.6005 64.3791 42.6113C64.5447 42.6419 64.6527 42.7463 64.6509 42.8651C64.6491 42.9948 64.5195 43.1082 64.3359 43.0901C64.0605 43.0649 63.7869 43.0073 63.5223 42.966L61.5027 44.7623C61.6377 44.8163 61.7853 44.8704 61.9275 44.9334C62.1363 45.0252 62.2245 45.1583 62.1777 45.2952C62.1309 45.4302 61.9779 45.4625 61.7547 45.3869C61.5243 45.3077 61.2939 45.2322 61.0671 45.1458C60.9573 45.1044 60.8655 45.1062 60.7611 45.1638C60.0033 45.5886 59.1789 45.7362 58.3221 45.774C58.0647 45.7848 57.8703 45.675 57.6795 45.549C57.6039 45.4986 57.5571 45.369 57.5427 45.27C57.4905 44.9226 57.4581 44.5734 57.4203 44.2242C57.4149 44.1702 57.4113 44.1161 57.4131 44.0621C57.4185 43.8749 57.3663 43.7255 57.2151 43.5906C56.9253 43.335 56.6571 43.0559 56.3835 42.7823C56.2881 42.6869 56.1945 42.5879 56.1225 42.4746C56.0271 42.327 56.0523 42.1919 56.1657 42.1163C56.2719 42.0461 56.3673 42.0786 56.4951 42.1992C56.7741 42.4656 57.0567 42.7229 57.3573 43.0019C57.4365 42.1757 57.5121 41.3801 57.5895 40.5611C57.3411 40.5053 57.2331 40.2713 57.0909 40.0661C56.9433 39.8519 56.7975 39.6377 56.5599 39.5009C56.4249 39.4235 56.4015 39.2634 56.4753 39.1482C56.5509 39.0312 56.7093 38.9825 56.8299 39.0869C57.0387 39.2687 57.2241 39.4775 57.4131 39.6809C57.4851 39.7583 57.5373 39.852 57.6291 39.9834C57.6813 39.8628 57.7317 39.7889 57.7443 39.7098C57.8919 38.7647 58.1151 37.8377 58.3833 36.9215C58.4193 36.7991 58.4103 36.6966 58.3203 36.5993C58.1439 36.4086 57.9747 36.2106 57.7983 36.018C57.7371 35.9514 57.6615 35.8992 57.6021 35.8326C57.4959 35.7138 57.4869 35.5841 57.5679 35.4923C57.6525 35.3969 57.7767 35.3862 57.9063 35.4888C58.0827 35.6292 58.2465 35.7822 58.4139 35.9334C58.4589 35.9748 58.4913 36.0288 58.5723 36.1278C58.6281 35.8632 58.6749 35.6687 58.7109 35.4707C58.9341 34.2449 59.0583 33.0101 59.0925 31.7645C59.0997 31.5413 59.1771 31.4243 59.3157 31.4171C59.4633 31.4117 59.5857 31.5467 59.5785 31.7609C59.5623 32.2559 59.5479 32.7528 59.4957 33.2442C59.4147 33.9966 59.3031 34.7436 59.2041 35.4942C59.2041 35.5446 59.2041 35.5967 59.2005 35.7011ZM25.1499 50.256C24.9159 50.1552 24.7143 50.0922 24.5379 49.9896C23.9853 49.6692 23.4381 49.3397 22.8963 49.0014C22.7541 48.9132 22.6173 48.8501 22.4499 48.8393C22.1079 48.8159 21.7677 48.7836 21.4275 48.7565C21.3825 48.753 21.3375 48.7548 21.2925 48.7476C21.1755 48.7242 21.0927 48.6611 21.0909 48.5315C21.0891 48.4056 21.1629 48.3209 21.2781 48.2993C21.4005 48.2777 21.5283 48.2868 21.6543 48.285C21.7443 48.2831 21.8325 48.285 21.9513 48.285C21.9063 48.2238 21.8793 48.1716 21.8379 48.1338C21.2763 47.61 20.8767 46.9692 20.5095 46.305C20.5005 46.2888 20.4915 46.2743 20.4843 46.2581C20.4051 46.0925 20.4231 45.9702 20.5329 45.8982C20.6463 45.8244 20.7705 45.8568 20.8749 46.0098C20.9775 46.1574 21.0711 46.3122 21.1593 46.4688C21.4887 47.0574 21.9261 47.556 22.4175 48.0114C22.4895 48.078 22.5633 48.1392 22.6623 48.2256C22.6911 48.1284 22.7109 48.0618 22.7289 47.9952C22.7487 47.916 22.7595 47.8349 22.7865 47.7593C22.8351 47.6225 22.9323 47.5596 23.0493 47.5776C23.1717 47.5956 23.2671 47.7089 23.2527 47.8547C23.2365 48.0059 23.1951 48.1553 23.1645 48.3047C23.1483 48.3839 23.1339 48.4613 23.1159 48.5585C23.9745 49.1759 24.8709 49.7106 25.9563 49.9806C25.9311 49.8564 25.9113 49.7645 25.8915 49.6727C25.8393 49.4261 25.7853 49.1795 25.7313 48.9347C25.7259 48.9077 25.7169 48.8826 25.7133 48.8556C25.6881 48.6702 25.7511 48.5298 25.8735 48.4956C26.0139 48.456 26.1435 48.5495 26.1885 48.7512C26.2893 49.1886 26.3811 49.6296 26.4765 50.0742C26.8995 50.2578 28.0965 50.3928 28.7301 50.3172C28.6545 49.8042 28.5807 49.293 28.5033 48.7656C28.1775 48.7332 27.9525 48.5369 27.7257 48.3443C27.4863 48.1391 27.2523 47.9268 27.0183 47.7162C26.8761 47.5865 26.8527 47.475 26.9391 47.3688C27.0273 47.2608 27.1587 47.241 27.3009 47.3472C27.4809 47.4822 27.6429 47.6387 27.8157 47.7827C27.9939 47.9303 28.1739 48.0744 28.3539 48.2202L28.3971 48.1877C28.3575 47.9411 28.3161 47.6963 28.2783 47.4497C28.1559 46.6577 28.0317 45.8658 27.9147 45.0738C27.8967 44.946 27.8481 44.874 27.7329 44.8056C27.2991 44.5482 26.8779 44.2728 26.4513 44.0046C26.3451 43.938 26.3073 43.8407 26.3523 43.7255C26.3973 43.6086 26.4981 43.5635 26.6151 43.5869C26.6925 43.6031 26.7699 43.6374 26.8365 43.6788C27.0741 43.8246 27.3099 43.9758 27.5457 44.1234C27.6195 44.1702 27.6933 44.2152 27.8085 44.289C27.7473 43.8822 27.6987 43.5258 27.6393 43.173C27.5547 42.6582 27.4575 42.1452 27.3747 41.6286C27.3549 41.5062 27.3045 41.4324 27.1929 41.3891C26.8815 41.2722 26.5755 41.1444 26.2623 41.0345C26.0427 40.9571 25.9563 40.8743 25.9941 40.7321C26.0337 40.5845 26.1813 40.5197 26.3973 40.5792C26.6565 40.6494 26.9121 40.7375 27.1929 40.8257C27.1929 40.7717 27.2019 40.7231 27.1911 40.6763C27.0381 39.9545 26.8833 39.2328 26.7231 38.5128C26.6907 38.3652 26.6367 38.2211 26.5827 38.0789C26.5377 37.962 26.5557 37.8666 26.6583 37.7928C26.7627 37.719 26.8797 37.7315 26.9517 37.8215C27.0327 37.9241 27.1029 38.0483 27.1335 38.1743C27.2559 38.6621 27.3639 39.1553 27.4737 39.6467C27.5547 40.0067 27.6285 40.3667 27.7671 40.7807C27.7941 40.7267 27.8175 40.6692 27.8499 40.6188C28.0353 40.3415 28.2171 40.0626 28.4115 39.7926C28.4727 39.708 28.5519 39.6234 28.6419 39.5747C28.8039 39.4847 28.9623 39.5946 28.9371 39.7782C28.9245 39.8718 28.8759 39.9671 28.8237 40.0463C28.5267 40.4873 28.2261 40.9248 27.9183 41.3586C27.8589 41.4432 27.8517 41.5188 27.8679 41.6088C27.9813 42.2748 28.0947 42.9408 28.2063 43.605C28.2405 43.8066 28.2693 44.0099 28.3053 44.2458C28.3737 44.1882 28.4259 44.1576 28.4619 44.1144C28.6167 43.9272 28.7679 43.7364 28.9191 43.5456C28.9641 43.4897 29.0001 43.425 29.0505 43.3746C29.1369 43.29 29.2341 43.2216 29.3619 43.2936C29.4699 43.3548 29.4987 43.4789 29.4339 43.6265C29.3979 43.7075 29.3529 43.7903 29.2953 43.8569C29.0343 44.1665 28.7733 44.4762 28.4997 44.7732C28.4259 44.8542 28.3827 44.9208 28.4007 45.0306C28.5519 45.981 28.7013 46.9332 28.8507 47.8854C28.8525 47.8997 28.8705 47.9123 28.8939 47.9412C29.1027 47.8008 29.2485 47.5973 29.4159 47.4173C29.4897 47.3381 29.5599 47.2554 29.6427 47.1888C29.7237 47.124 29.8281 47.1041 29.9181 47.1743C30.0063 47.2427 30.0225 47.3436 29.9757 47.4426C29.9343 47.5308 29.8875 47.6225 29.8209 47.6927C29.5887 47.9447 29.3565 48.1949 29.1063 48.4289C29.0001 48.5279 28.9659 48.6161 28.9875 48.7565C29.0577 49.1922 29.1279 49.6278 29.1711 50.0669C29.1909 50.2668 29.1693 50.4755 29.1351 50.6754C29.1099 50.8248 28.9695 50.8535 28.8363 50.8481C28.5213 50.8373 28.2063 50.8176 27.8913 50.8104C27.3027 50.7978 26.7321 50.6609 26.1579 50.5493C26.0481 50.5277 25.9239 50.5296 25.8177 50.5619C25.5423 50.643 25.2741 50.751 25.0005 50.841C24.8295 50.8968 24.6567 50.9489 24.4803 50.985C24.2841 51.0246 24.1635 50.9579 24.1365 50.8193C24.1113 50.6951 24.1923 50.589 24.3633 50.5314C24.5595 50.4648 24.7575 50.4072 24.9537 50.3424C25.0095 50.3243 25.0563 50.2974 25.1499 50.256Z" fill="#6A885E"/>
<path d="M20.0987 56.6512C19.1303 56.6584 18.2663 56.9662 17.4977 57.553C17.4257 57.607 17.3555 57.6664 17.2763 57.706C17.1269 57.7816 16.9649 57.7492 16.8569 57.6322C16.7471 57.5134 16.7309 57.3244 16.8263 57.184C16.8605 57.1336 16.9055 57.085 16.9541 57.0472C18.3077 56.0086 19.8017 55.609 21.4631 56.131C22.3955 56.4244 23.0723 57.0292 23.3837 57.9868C23.5493 58.498 23.5331 59.0146 23.4071 59.5294C23.3873 59.614 23.3441 59.7004 23.2883 59.767C23.1947 59.875 23.0705 59.9236 22.9247 59.8732C22.7753 59.8228 22.6763 59.7238 22.6655 59.5618C22.6601 59.4826 22.6781 59.4016 22.6961 59.3242C22.9265 58.3702 22.5611 57.5206 21.7043 57.0346C21.2075 56.7538 20.6693 56.6368 20.0987 56.6512ZM34.6427 60.0262C35.2097 60.0298 35.7173 60.2098 36.1799 60.5338C36.5381 60.784 36.8315 61.099 37.0871 61.45C37.4219 61.9108 37.6757 62.4166 37.8755 62.9512C37.9799 63.232 37.9115 63.4426 37.7009 63.5218C37.4849 63.6028 37.3175 63.4894 37.1879 63.214C37.0043 62.8234 36.8315 62.4256 36.6047 62.062C36.4319 61.783 36.2069 61.5238 35.9621 61.3042C35.2907 60.703 34.5293 60.6022 33.7103 60.9856C33.2639 61.1944 32.8931 61.504 32.5547 61.8586C32.4935 61.9234 32.4359 61.9954 32.3657 62.0512C32.2181 62.1718 32.0273 62.1718 31.8941 62.062C31.7483 61.9396 31.7231 61.7524 31.8311 61.576C31.8401 61.5598 31.8509 61.5454 31.8617 61.5328C32.5403 60.766 33.3215 60.172 34.3745 60.0334C34.4015 60.0298 34.4285 60.028 34.4555 60.0262H34.6427ZM57.6845 57.6916C57.6935 58.0876 57.8051 58.453 58.0139 58.7896C58.0607 58.8652 58.1165 58.939 58.1507 59.0218C58.2137 59.1748 58.1669 59.335 58.0409 59.434C57.9149 59.5348 57.7529 59.542 57.6161 59.4448C57.5657 59.4088 57.5189 59.362 57.4829 59.3116C56.6009 58.0768 56.8241 56.41 57.9977 55.555C59.1353 54.7252 60.6725 54.9898 61.5815 56.014C61.6499 56.0896 61.6985 56.1994 61.7129 56.3002C61.7327 56.4316 61.6643 56.545 61.5455 56.6152C61.4285 56.6854 61.3007 56.6944 61.1873 56.6206C61.0991 56.563 61.0235 56.482 60.9461 56.4082C60.3845 55.8862 59.7347 55.6738 58.9841 55.879C58.1939 56.0986 57.6665 56.8474 57.6845 57.6916ZM67.7303 48.3046C67.7375 47.5108 68.0633 46.8592 68.6393 46.3282C69.5411 45.4948 70.8893 45.2968 71.9261 45.8404C72.0845 45.9232 72.2375 46.024 72.3743 46.1374C72.5741 46.3012 72.5957 46.5154 72.4553 46.6828C72.3203 46.8412 72.1241 46.861 71.9243 46.708C71.5859 46.447 71.2079 46.2994 70.7813 46.2742C69.8129 46.2202 68.8607 46.8394 68.5619 47.7232C68.3567 48.3316 68.4449 48.8932 68.8607 49.3954C68.9057 49.4512 68.9543 49.507 68.9867 49.57C69.0659 49.7212 69.0371 49.876 68.9219 49.9912C68.8103 50.101 68.6375 50.1298 68.4989 50.0452C68.4161 49.9948 68.3423 49.9228 68.2811 49.8472C67.9121 49.4008 67.7159 48.8914 67.7303 48.3046ZM26.9765 65.0212C26.4617 64.9816 26.0351 64.7926 25.7057 64.4128C25.2341 63.8674 25.0811 63.2104 25.0955 62.5066C25.0991 62.305 25.2521 62.1628 25.4339 62.152C25.6265 62.1412 25.7777 62.2798 25.8083 62.4976C25.8425 62.737 25.8515 62.9836 25.9127 63.2158C25.9667 63.421 26.0513 63.6262 26.1665 63.8044C26.4221 64.1968 26.8217 64.3264 27.2735 64.2004C27.6497 64.096 27.9521 63.8746 28.2185 63.601C28.3553 63.4588 28.4723 63.2986 28.5983 63.1456C28.6505 63.0844 28.6955 63.0142 28.7567 62.9638C28.8791 62.863 29.0303 62.8576 29.1599 62.935C29.2967 63.0178 29.3633 63.1654 29.3255 63.3292C29.3147 63.3814 29.2931 63.4336 29.2643 63.4768C28.8737 64.0528 28.4021 64.5406 27.7487 64.8124C27.5057 64.9132 27.2357 64.9528 26.9765 65.0212ZM66.1553 58.0354C65.9807 57.9976 65.8007 57.9778 65.6333 57.9202C65.4137 57.8446 65.3165 57.643 65.3813 57.4522C65.4461 57.2596 65.6423 57.1462 65.8601 57.2236C66.3929 57.4126 67.1579 57.0184 67.4315 56.6278C67.5665 56.4352 67.5665 56.3632 67.4279 56.1778C67.2947 55.9996 67.2947 55.8322 67.4261 55.69C67.5557 55.5496 67.7699 55.5334 67.9409 55.6522C68.2109 55.8412 68.3567 56.221 68.2559 56.563C68.2001 56.7484 68.1119 56.9338 67.9985 57.0904C67.6043 57.634 66.8339 58.0102 66.1553 58.0354Z" fill="#75544D"/>
<path d="M26.5181 58.2694C28.2335 57.8176 29.6501 58.3108 30.8579 59.5798C30.8885 59.4934 30.9173 59.4232 30.9389 59.3512C31.1189 58.7482 31.3043 58.147 31.6283 57.5962C31.7831 57.3334 31.9811 57.13 32.2655 57.0472C32.5823 56.9536 32.9099 56.86 33.2375 56.8438C34.6001 56.7754 35.9645 56.842 37.2803 57.2146C38.8049 57.6466 40.3025 58.1704 41.6057 59.1208C41.9351 59.3602 42.2447 59.6176 42.5111 59.9272C42.9935 60.4834 43.2311 61.1422 43.3247 61.864C43.4471 62.8054 43.2635 63.7108 43.0259 64.6108C42.9017 65.0806 42.7577 65.545 42.6101 66.0076C42.3563 66.805 41.9567 67.5286 41.4671 68.2018C40.8785 69.0118 40.0613 69.4582 39.1001 69.6958C38.0759 69.9496 37.0643 69.8848 36.0509 69.6652C34.8251 69.4006 33.6839 68.911 32.6201 68.2576C31.7039 67.6924 30.9965 66.9292 30.5897 65.9068C30.3917 65.4118 30.1847 64.9294 30.1271 64.3912C30.0515 63.6748 30.1235 62.971 30.2585 62.2708C30.3557 61.7578 30.4637 61.2466 30.5807 60.739C30.6131 60.6022 30.5915 60.4978 30.5177 60.3862C29.9633 59.5546 29.1893 59.0578 28.2119 58.8796C27.6107 58.7698 27.0293 58.84 26.4749 59.1046C26.3129 59.182 26.2031 59.2846 26.1401 59.4646C25.9259 60.0784 25.6253 60.6526 25.3013 61.216C24.9395 61.8424 24.4607 62.3608 23.8631 62.7676C22.6211 63.6136 21.2585 64.1482 19.7645 64.3246C18.7853 64.4398 17.8493 64.2274 16.9403 63.8764C15.9503 63.4948 15.1241 62.863 14.3195 62.1898C13.2773 61.3186 12.8309 60.1702 12.6707 58.867C12.4745 57.2722 12.7823 55.771 13.4519 54.3256C13.7615 53.656 14.0693 52.9846 14.4635 52.36C14.5319 52.252 14.6417 52.153 14.7551 52.0918C15.0485 51.9352 15.3599 51.8146 15.6533 51.6598C16.6793 51.1144 17.7701 51.0856 18.8879 51.2278C19.9031 51.3556 20.8445 51.6922 21.7355 52.1854C22.5077 52.612 23.2925 53.0188 24.0413 53.4832C24.9773 54.0646 25.6901 54.8656 26.1923 55.8556C26.5397 56.5396 26.6099 57.2614 26.5343 58.0102C26.5289 58.0642 26.5181 58.1164 26.5145 58.1704C26.5091 58.192 26.5145 58.219 26.5181 58.2694ZM17.6495 51.8884C17.2625 51.856 16.7153 51.9802 16.1933 52.2286C15.9989 52.3204 15.8027 52.414 15.5993 52.4896C15.2447 52.6192 14.9873 52.8748 14.8235 53.1898C14.4959 53.8198 14.1935 54.466 13.9145 55.1194C13.3385 56.4658 13.2089 57.8662 13.4825 59.3008C13.6085 59.9614 13.8137 60.6058 14.2799 61.108C15.1097 62.0008 16.0619 62.7352 17.2031 63.1924C18.0617 63.5362 18.9509 63.7 19.8725 63.5686C21.1109 63.3922 22.2521 62.9458 23.2997 62.26C23.7335 61.9756 24.1277 61.6498 24.4193 61.216C25.0169 60.3286 25.4813 59.3728 25.7243 58.327C25.9133 57.5152 25.8593 56.7214 25.4237 55.9762C24.9881 55.231 24.4373 54.5866 23.7029 54.1438C22.7705 53.5822 21.8093 53.0692 20.8427 52.567C19.9085 52.0774 18.8897 51.9118 17.6495 51.8884ZM34.0781 57.5314C34.0763 57.5458 34.0763 57.5602 34.0745 57.5746C33.8855 57.5746 33.6965 57.5656 33.5093 57.5764C33.2861 57.589 33.0611 57.6106 32.8397 57.6394C32.5139 57.6826 32.2655 57.8464 32.1395 58.1578C32.0207 58.4494 31.9001 58.741 31.8047 59.0398C31.5095 59.9668 31.2737 60.91 31.1045 61.8676C31.0109 62.3896 30.8993 62.9098 30.8471 63.4372C30.7715 64.2058 30.9551 64.9258 31.2665 65.6368C31.6409 66.4882 32.2187 67.147 32.9927 67.6222C34.0259 68.2558 35.1311 68.7382 36.3299 68.9668C36.8141 69.0586 37.3091 69.1252 37.8005 69.1324C38.2847 69.1396 38.7635 69.028 39.2333 68.893C39.9443 68.6878 40.5149 68.2918 40.9361 67.6816C41.3573 67.0714 41.7173 66.427 41.9297 65.7124C42.1079 65.1184 42.2843 64.5226 42.4355 63.9214C42.5633 63.4156 42.6317 62.8972 42.6245 62.3716C42.6101 61.3654 42.2501 60.5284 41.4365 59.9128C40.9397 59.5384 40.4267 59.182 39.8525 58.9408C39.1901 58.6618 38.5115 58.4206 37.8437 58.156C37.3217 57.949 36.7799 57.814 36.2273 57.7456C35.5109 57.6556 34.7945 57.5998 34.0781 57.5314ZM63.1967 52.7308C63.3857 52.288 63.6251 51.901 63.9761 51.5914C64.3217 51.2854 64.7249 51.1018 65.1929 51.0352C65.0435 50.722 64.9121 50.4268 64.7663 50.1388C64.4999 49.6114 64.3451 49.048 64.2659 48.4666C64.2425 48.2938 64.2677 48.1048 64.3145 47.9356C64.5251 47.1616 64.7951 46.4146 65.2055 45.7144C65.7671 44.755 66.5321 44.0152 67.4717 43.4464C68.5229 42.8092 69.6587 42.433 70.9007 42.4582C71.5127 42.4708 72.1193 42.5626 72.7079 42.7444C73.4801 42.982 74.1119 43.432 74.6051 44.0692C75.3377 45.0178 75.7661 46.0906 75.8633 47.2912C75.9803 48.7258 75.5735 49.9966 74.6843 51.1144C73.4585 52.657 71.8475 53.5894 69.9431 54.0142C68.7047 54.2896 67.6247 53.917 66.7301 53.0368C66.3845 52.6966 66.0875 52.3096 65.7797 51.9334C65.6969 51.8326 65.6195 51.793 65.4899 51.7822C65.0201 51.748 64.6493 51.9334 64.3379 52.2664C64.0805 52.5418 63.9203 52.8712 63.8123 53.2294C63.7727 53.3608 63.7997 53.4688 63.8771 53.5822C64.5611 54.5794 64.8041 55.699 64.7573 56.8888C64.7375 57.3676 64.6151 57.8338 64.4189 58.2712C64.2209 58.714 64.0247 59.1622 63.7853 59.5834C63.1877 60.6382 62.3273 61.4482 61.2599 61.9936C60.0179 62.6272 58.7525 62.6218 57.5195 61.9072C56.2037 61.1458 55.3523 60.0136 54.8321 58.606C54.5837 57.9328 54.4667 57.2326 54.4145 56.5216C54.3965 56.2822 54.4055 56.0374 54.4343 55.798C54.4523 55.6414 54.5009 55.474 54.5801 55.3408C55.0391 54.5776 55.4945 53.8108 56.1101 53.1538C56.9039 52.3078 57.8543 51.7336 58.9847 51.4852C60.4229 51.1666 61.7099 51.5284 62.8565 52.4338C62.9645 52.5238 63.0689 52.621 63.1967 52.7308ZM70.7765 43.189C70.6343 43.1962 70.4723 43.1944 70.3121 43.216C70.0727 43.2484 69.8297 43.279 69.5957 43.3438C67.9613 43.7974 66.6329 44.6686 65.7905 46.1842C65.4179 46.8538 65.1047 47.5342 65.0687 48.3262C65.0525 48.6808 65.0813 49.0102 65.2199 49.3252C65.4341 49.8112 65.6573 50.2936 65.9021 50.7634C66.2333 51.3988 66.6761 51.9568 67.1837 52.4608C67.9559 53.2276 68.8685 53.5444 69.9449 53.2654C71.6585 52.819 73.1147 51.964 74.2019 50.5366C74.7509 49.8166 75.0731 48.9994 75.1325 48.0994C75.2225 46.7692 74.8319 45.574 74.0219 44.5192C73.6097 43.9828 73.0769 43.6084 72.4217 43.4266C71.8907 43.279 71.3471 43.207 70.7765 43.189ZM64.0265 56.653C64.0085 55.1716 63.5117 53.998 62.4731 53.0854C61.5785 52.3006 60.5273 51.9712 59.3429 52.171C58.2881 52.351 57.4025 52.8586 56.6681 53.638C56.2199 54.1132 55.8617 54.6514 55.5215 55.204C55.3775 55.4398 55.2047 55.6558 55.2083 55.9582C55.2101 56.1994 55.1453 56.4424 55.1633 56.68C55.2029 57.211 55.3055 57.7312 55.4801 58.237C55.9229 59.5132 56.6645 60.5518 57.8453 61.252C58.8659 61.8568 59.9117 61.8658 60.9377 61.3348C61.8629 60.856 62.6153 60.1522 63.1373 59.236C63.3605 58.8454 63.5477 58.435 63.7259 58.021C63.9275 57.5548 64.0445 57.0652 64.0265 56.653Z" fill="#F4FAFA"/>
<path d="M81.1462 38.2427C81.1948 38.1473 81.2236 38.0393 81.2902 37.9637C81.8338 37.3517 82.0912 36.6029 82.3072 35.8379C82.678 34.5329 82.948 33.2063 82.921 31.8473C82.8922 30.3371 82.1704 29.2049 80.8546 28.4705C80.2012 28.1051 79.4938 28.0277 78.7594 28.1609C78.4876 28.2113 78.4894 28.2095 78.4444 28.4723C78.3274 29.1581 78.1546 29.8277 77.8918 30.4721C77.7244 30.8825 77.5264 31.2749 77.2564 31.6295C77.0692 31.8743 76.8568 32.0939 76.5796 32.2397C75.883 32.6069 75.1846 32.2559 75.0676 31.4819C75.019 31.1615 75.0838 30.8537 75.1756 30.5513C75.352 29.9717 75.6688 29.4731 76.0954 29.0447C76.5904 28.5461 77.1646 28.1627 77.8252 27.9197C77.9926 27.8585 78.0556 27.7757 78.0754 27.5957C78.2338 26.1431 78.1942 24.6995 77.9044 23.2667C77.7388 22.4495 77.4706 21.6683 77.0404 20.9501C76.9432 20.7881 76.837 20.6315 76.729 20.4767C76.2124 19.7405 75.5104 19.3319 74.6104 19.2365C73.9948 19.1699 73.3918 19.2149 72.7618 19.3427C72.7924 19.4993 72.8212 19.6379 72.8482 19.7765C73.183 21.5621 73.0552 23.3081 72.3928 25.0073C72.2074 25.4807 71.968 25.9235 71.6206 26.2979C71.05 26.9117 70.357 27.1727 69.5236 26.9945C68.8792 26.8559 68.4256 26.4761 68.17 25.8677C67.8802 25.1765 67.8586 24.4601 68.044 23.7473C68.4274 22.2785 69.1978 21.0383 70.321 20.0213C70.7728 19.6127 71.302 19.3211 71.869 19.1015C71.9518 19.0691 72.0346 19.0367 72.121 19.0025C72.1174 18.9575 72.1228 18.9197 72.112 18.8873C71.5612 17.0495 70.4542 15.6851 68.6758 14.9219C67.2736 14.3207 65.9146 14.4629 64.6276 15.2747C64.003 15.6689 63.5026 16.1999 63.0436 16.7705C62.6404 17.2691 62.284 17.7983 62.0194 18.3833C62.0338 18.4157 62.0428 18.4391 62.0554 18.4625C62.1562 18.6407 62.1472 18.7523 62.023 18.8369C61.897 18.9233 61.699 18.9071 61.6126 18.7721C61.5532 18.6803 61.5154 18.5543 61.5244 18.4481C61.537 18.3095 61.5856 18.1655 61.6504 18.0395C62.2858 16.7921 63.1264 15.7031 64.2946 14.9183C65.8048 13.9049 67.4158 13.7825 69.0664 14.5601C70.78 15.3665 71.9086 16.6985 72.5008 18.4949C72.5404 18.6137 72.5836 18.7307 72.6286 18.8567C72.9058 18.8171 73.1704 18.7757 73.4368 18.7433C74.0236 18.6749 74.605 18.7073 75.181 18.8405C75.8614 18.9971 76.4266 19.3463 76.8784 19.8791C77.4886 20.5973 77.899 21.4253 78.1726 22.3199C78.493 23.3693 78.637 24.4493 78.6532 25.5419C78.664 26.2421 78.619 26.9441 78.5992 27.6677C78.637 27.6677 78.6964 27.6767 78.7522 27.6659C79.7224 27.5039 80.6206 27.6965 81.4306 28.2437C82.696 29.0987 83.3692 30.2975 83.4196 31.8275C83.4502 32.7239 83.3044 33.6059 83.1388 34.4825C82.9696 35.3771 82.7464 36.2591 82.3828 37.0979C82.2611 37.3783 82.1141 37.647 81.9436 37.9007C81.8482 38.0447 81.6934 38.1563 81.5476 38.2553C81.436 38.3255 81.2992 38.3669 81.1462 38.2427ZM72.2956 19.4741C71.671 19.6703 71.1454 19.9457 70.6954 20.3435C69.6262 21.2849 68.899 22.4477 68.5282 23.8247C68.3662 24.4277 68.3716 25.0379 68.6002 25.6319C68.7856 26.1143 69.133 26.4149 69.6406 26.5175C70.222 26.6345 70.7278 26.4833 71.1544 26.0711C71.5252 25.7129 71.7628 25.2683 71.9482 24.7967C72.4828 23.4251 72.6286 22.0049 72.4684 20.5487C72.4306 20.1995 72.3586 19.8557 72.2956 19.4741ZM77.9548 28.4093C77.8684 28.4363 77.8162 28.4471 77.7676 28.4687C77.1538 28.7495 76.621 29.1419 76.1944 29.6675C75.9118 30.0131 75.6994 30.4001 75.6094 30.8393C75.5662 31.0553 75.5518 31.2875 75.5788 31.5053C75.6148 31.7969 75.874 31.9607 76.153 31.8743C76.3186 31.8239 76.495 31.7339 76.6102 31.6097C76.8208 31.3793 77.017 31.1273 77.1682 30.8555C77.5822 30.1049 77.7982 29.2895 77.9548 28.4093ZM15.6514 30.6971C15.7162 30.5693 15.7612 30.4829 15.8026 30.3965C16.5334 28.9025 17.4838 27.5651 18.6646 26.3933C19.2388 25.8263 19.8742 25.3439 20.6158 25.0109C21.1396 24.7769 21.685 24.6365 22.2628 24.6455C22.306 24.6455 22.351 24.6419 22.4068 24.6383C22.4554 24.5303 22.5058 24.4259 22.5508 24.3197C23.1322 22.9571 23.8108 21.6485 24.6694 20.4389C25.0708 19.8719 25.4938 19.3211 26.0356 18.8783C26.23 18.7199 26.4496 18.5921 26.662 18.4589C26.734 18.4139 26.824 18.3959 26.905 18.3671L26.9482 18.4103C26.8996 18.4877 26.8618 18.5705 26.8024 18.6389C26.6242 18.8423 26.4478 19.0475 26.257 19.2383C25.4794 20.0141 24.8548 20.9033 24.3004 21.8465C23.8036 22.6943 23.3788 23.5781 22.9972 24.4835C22.9666 24.5555 22.945 24.6311 22.9162 24.7157C22.9738 24.7391 23.0134 24.7589 23.0548 24.7733C23.7298 25.0001 24.1672 25.4735 24.3688 26.1395C24.763 27.4391 24.5722 28.6703 23.8396 29.8097C23.7154 30.0005 23.5354 30.1697 23.35 30.3047C22.8838 30.6395 22.3402 30.5909 21.919 30.1931C21.5176 29.8151 21.3376 29.3363 21.316 28.7909C21.2944 28.2437 21.4114 27.7145 21.5572 27.1943C21.7264 26.5967 21.928 26.0099 22.1152 25.4177C22.1422 25.3349 22.1692 25.2521 22.2034 25.1459C21.8686 25.1243 21.5806 25.1945 21.298 25.2773C20.7994 25.4213 20.344 25.6589 19.9318 25.9685C19.615 26.2061 19.3018 26.4527 19.021 26.7299C17.7394 27.9971 16.7296 29.4551 16.0096 31.1111C15.934 31.2857 15.9214 31.4423 15.97 31.6277C16.312 32.9417 16.276 34.2485 15.8602 35.5427C15.8026 35.7209 15.7216 35.8955 15.6334 36.0611C15.547 36.2249 15.4192 36.3581 15.2104 36.3473C14.9872 36.3365 14.8756 36.1763 14.8162 35.9909C14.7496 35.7875 14.6938 35.5751 14.6704 35.3627C14.5948 34.6463 14.7064 33.9407 14.8594 33.2459C14.9836 32.6753 15.1546 32.1155 15.3202 31.5539C15.3616 31.4153 15.367 31.3001 15.3112 31.1651C15.061 30.5585 14.692 30.0473 14.152 29.6711C13.3258 29.0969 12.4456 28.9907 11.515 29.3849C10.8202 29.6801 10.2586 30.1517 9.78159 30.7295C9.26139 31.3613 8.8618 32.0651 8.5738 32.8283C8.0752 34.1513 7.79259 35.5247 7.70799 36.9359C7.66659 37.6253 7.74219 38.3057 7.96719 38.9609C8.0571 39.2153 8.17228 39.4602 8.31099 39.6917C8.48919 39.9923 8.75019 40.2137 9.07959 40.3451C9.53139 40.5251 9.9724 40.5035 10.3576 40.2011C10.5952 40.0139 10.813 39.7907 11.002 39.5531C11.5078 38.9141 11.8048 38.1725 11.9848 37.3805C12.2854 36.0647 12.2836 34.7543 11.9074 33.4529C11.8408 33.2207 11.7382 32.9975 11.6338 32.7797C11.5726 32.6537 11.4934 32.5313 11.3008 32.5781C11.1964 32.6033 11.1172 32.5241 11.0812 32.4179C11.0452 32.3081 11.0848 32.2199 11.1658 32.1533C11.2864 32.0543 11.4232 32.0381 11.5708 32.0939C11.785 32.1749 11.947 32.3243 12.0388 32.5205C12.181 32.8193 12.3196 33.1271 12.4078 33.4439C12.856 35.0729 12.7696 36.6893 12.2296 38.2823C11.9974 38.9717 11.6428 39.5981 11.1514 40.1381C11.0308 40.2713 10.9012 40.3991 10.7608 40.5107C10.0768 41.0579 9.26139 41.0903 8.53059 40.6043C8.11119 40.3253 7.83219 39.9329 7.63599 39.4775C7.35159 38.8241 7.2166 38.1347 7.2112 37.4273C7.2004 35.8325 7.52979 34.2971 8.05719 32.8013C8.30919 32.0831 8.66379 31.4171 9.10659 30.7979C9.56739 30.1535 10.1182 29.6045 10.8004 29.1923C12.838 27.9611 14.6542 29.0429 15.4534 30.3677C15.5164 30.4649 15.5686 30.5585 15.6514 30.6971ZM22.7398 25.1981C22.7092 25.2575 22.6714 25.3169 22.6498 25.3817C22.4194 26.1197 22.1728 26.8523 21.973 27.5975C21.874 27.9665 21.8326 28.3589 21.8164 28.7423C21.7984 29.1599 21.9442 29.5397 22.2592 29.8349C22.5076 30.0671 22.801 30.1067 23.0674 29.9051C23.2366 29.7773 23.386 29.6135 23.5066 29.4389C23.7712 29.0573 23.9134 28.6181 23.9998 28.1645C24.1276 27.4895 24.1204 26.8217 23.8666 26.1719C23.665 25.6607 23.305 25.3277 22.7398 25.1981ZM15.259 35.6795C15.7126 34.6175 15.7864 33.5159 15.6262 32.3225C15.5776 32.4089 15.5542 32.4341 15.5452 32.4647C15.3598 33.1505 15.2212 33.8471 15.1636 34.5545C15.133 34.9289 15.115 35.3087 15.259 35.6795ZM19.5898 20.2931C17.5324 20.8061 16.4236 22.1849 15.9916 24.1361C15.5596 22.1885 14.4508 20.8079 12.3952 20.2931C13.3708 20.1581 14.1412 19.6487 14.7892 18.9323C15.439 18.2159 15.8458 17.3789 15.988 16.4159C16.294 18.5273 18.0526 20.1311 19.5898 20.2931ZM74.0632 14.0003C75.568 13.5665 76.4158 12.5351 76.7758 11.0213C77.1322 12.5351 77.98 13.5629 79.492 14.0003C77.9854 14.4377 77.1412 15.4601 76.7776 16.9757C76.7524 16.8965 76.7308 16.8389 76.7164 16.7813C76.4536 15.6653 75.8164 14.8319 74.8138 14.2883C74.5816 14.1623 74.3188 14.0957 74.0632 14.0003ZM40.2988 28.3175C41.8396 27.9089 42.6856 26.8649 43.0546 25.3547C43.4218 26.8775 44.275 27.9089 45.7834 28.3103C44.2714 28.7081 43.4146 29.7503 43.0528 31.2893C43.0294 31.1993 43.0096 31.1255 42.9898 31.0499C42.709 29.9195 42.0538 29.0825 41.017 28.5497C40.9054 28.4921 40.7848 28.4543 40.6642 28.4147C40.5454 28.3787 40.4248 28.3499 40.2988 28.3175ZM49.891 74.0699C50.2312 75.5621 51.07 76.6133 52.6054 77.0489C51.0754 77.4845 50.233 78.5321 49.891 80.0297C49.558 78.5285 48.7138 77.4971 47.1964 77.0507C48.7066 76.6097 49.5598 75.5765 49.891 74.0699ZM45.7438 40.0031C45.8878 39.9941 46.003 39.9779 46.1182 39.9797C46.5646 39.9869 46.9138 40.1795 47.1568 40.5557C47.4304 40.9805 47.5744 41.4485 47.6392 41.9453C47.713 42.5123 47.6572 43.0793 47.6248 43.6445C47.5942 44.1827 47.5294 44.7209 47.4754 45.2573C47.4646 45.3635 47.4466 45.4733 47.4124 45.5741C47.3854 45.6569 47.3386 45.7397 47.281 45.8045C47.2054 45.8873 47.1028 45.9341 46.9894 45.8765C46.8724 45.8153 46.8706 45.7073 46.8994 45.5939C47.0938 44.8379 47.0992 44.0603 47.1478 43.2899C47.173 42.8777 47.1694 42.4619 47.1496 42.0497C47.1316 41.6501 47.0056 41.2721 46.8094 40.9229C46.5736 40.5053 46.2118 40.3757 45.7528 40.5233C45.6484 40.5575 45.5908 40.6151 45.553 40.7177C45.5026 40.8617 45.445 41.0057 45.364 41.1335C45.2938 41.2451 45.1984 41.3477 45.0922 41.4251C44.9392 41.5385 44.7628 41.5295 44.6422 41.4269C44.5108 41.3171 44.4712 41.1677 44.5252 41.0129C44.572 40.8797 44.6458 40.7537 44.7232 40.6331C44.77 40.5593 44.8348 40.4801 44.9104 40.4423C45.1822 40.3055 45.2272 40.0589 45.2632 39.7943C45.3676 39.0221 45.4108 38.2499 45.256 37.4831C45.1894 37.1519 45.058 36.8315 44.9446 36.5111C44.9104 36.4121 44.8456 36.3185 44.7826 36.2321C44.4802 35.8055 44.1526 35.7407 43.7224 36.0413C43.3354 36.3113 42.988 36.6209 42.8062 37.0781C42.763 37.1879 42.6784 37.2545 42.5524 37.2329C42.4408 37.2149 42.349 37.0997 42.367 36.9719C42.3796 36.8675 42.4138 36.7577 42.466 36.6677C42.7648 36.1709 43.1626 35.7713 43.6756 35.5013C44.1346 35.2601 44.599 35.3249 44.9608 35.7011C45.139 35.8865 45.2866 36.1097 45.4036 36.3401C45.7384 36.9953 45.8392 37.7099 45.8428 38.4353C45.8446 38.8745 45.7906 39.3155 45.7618 39.7547C45.7582 39.8249 45.751 39.8969 45.7438 40.0031ZM40.9666 47.1977C40.6426 45.9197 39.9208 45.0449 38.6482 44.6921C39.9316 44.3411 40.6462 43.4609 40.9666 42.1829C41.2852 43.4519 41.998 44.3393 43.2796 44.6903C41.872 45.2429 41.4778 45.6695 40.9666 47.1977ZM67.3168 9.81167C68.3734 9.50027 68.9674 8.79287 69.25 7.74707C69.349 8.00087 69.4174 8.23487 69.5308 8.44547C69.6442 8.65787 69.781 8.86307 69.9448 9.03947C70.116 9.22311 70.3095 9.38457 70.5208 9.52007C70.7224 9.64787 70.9564 9.72347 71.167 9.81887C70.15 10.1177 69.5488 10.8287 69.2608 11.9087C68.971 10.8395 68.3806 10.1195 67.3168 9.81167ZM19.3324 36.4265C20.1802 36.1745 20.6338 35.6111 20.8858 34.7813C21.1378 35.6075 21.5896 36.1709 22.4266 36.4211C21.6112 36.6857 21.1288 37.2311 20.893 38.0807C20.6392 37.2581 20.1838 36.6857 19.3324 36.4265ZM64.5574 26.9441C64.795 27.7883 65.2648 28.3355 66.055 28.6001C65.1658 29.0087 64.8652 29.3345 64.5574 30.2417C64.3072 29.4479 63.8662 28.8737 63.022 28.6127C63.8446 28.3391 64.318 27.7865 64.5574 26.9441Z" fill="#F8D86F"/>
<path d="M37.2204 20.1043C38.7468 19.6795 39.5874 18.6517 39.9582 17.1289C39.9834 17.2153 40.005 17.2747 40.0194 17.3359C40.2876 18.4501 40.9266 19.2835 41.9328 19.8253C42.1668 19.9513 42.435 20.0161 42.6852 20.1079C41.1804 20.5183 40.3254 21.5569 39.9582 23.0833C39.5964 21.5641 38.7432 20.5291 37.2204 20.1043ZM8.73537 26.6383C8.62197 26.1487 8.43297 25.7563 8.13417 25.4233C7.83357 25.0903 7.47717 24.8473 6.96777 24.7285C7.95057 24.4225 8.48517 23.7727 8.74077 22.8187C8.99457 23.7853 9.53277 24.4279 10.485 24.7195C9.52197 25.0147 8.99097 25.6591 8.73537 26.6383ZM43.866 79.9057C42.984 80.1703 42.4458 80.8075 42.1902 81.7237C42.0624 81.4465 41.9706 81.1693 41.814 80.9335C41.6574 80.6977 41.4612 80.4727 41.238 80.2981C41.0094 80.1199 40.7286 80.0065 40.4892 79.8769C41.4864 79.4431 41.8572 79.0453 42.156 78.0553C42.282 78.3271 42.3756 78.6061 42.5322 78.8455C42.6888 79.0813 42.885 79.3063 43.1082 79.4791C43.3368 79.6591 43.6194 79.7707 43.866 79.9057Z" fill="#B2E5D4"/>
</g>
<defs>
<clipPath id="clip0_40016694_3545">
<rect width="90" height="90" fill="white"/>
</clipPath>
</defs>
</svg>
